M48
METRIC,LZ,000.000
;FILE_FORMAT=3:3
;TYPE=PLATED
;Layer: PTH_Through
;EasyEDA v6.5.46, 2025-08-30 12:54:10
;04c061e2933c4fd480ff2fcb95437ea8,10
;Gerber Generator version 0.2
;Holesize 1 = 0.701 mm
T01C0.701
;Holesize 2 = 0.891 mm
T02C0.891
;Holesize 3 = 0.915 mm
T03C0.915
%
G05
G90
T01
X037338Y-020431
X037338Y-018431
T02
X004826Y-011811
X004826Y-014351
X004826Y-016891
X004826Y-019431
X004826Y-021971
X004826Y-024511
X004826Y-027051
X007366Y-027051
X007366Y-024511
X007366Y-021971
X007366Y-019431
X007366Y-016891
X007366Y-014351
X007366Y-011811
X009906Y-011811
X009906Y-014351
X009906Y-016891
X009906Y-019431
X009906Y-021971
X009906Y-024511
X009906Y-027051
X030226Y-058801
X032766Y-058801
X004826Y-029591
X007366Y-029591
X009906Y-029591
T03
X016891Y-015494
X019431Y-015494
X021971Y-015494
X024511Y-015494
X027051Y-015494
X029591Y-015494
X030861Y-025273
X030861Y-027813
X005535Y-052763
X008075Y-052763
X010615Y-052763
X013155Y-052763
X015695Y-052763
X018235Y-052763
X020775Y-052763
X023315Y-052763
X025855Y-052763
X028395Y-052763
X030935Y-052763
X033475Y-052763
X033475Y-037523
X030935Y-037523
X028395Y-037523
X025855Y-037523
X023315Y-037523
X020775Y-037523
X018235Y-037523
X015695Y-037523
X013155Y-037523
X010615Y-037523
X008075Y-037523
X005535Y-037523
X005535Y-045143
X005535Y-047683
X005535Y-050223
X036015Y-041333
X036015Y-043873
X036015Y-046413
X036015Y-048953
X036015Y-051493
X036014Y-038793
M30
