G04 Layer: BottomLayer*
G04 EasyEDA v6.5.46, 2025-08-30 12:54:10*
G04 04c061e2933c4fd480ff2fcb95437ea8,10*
G04 Gerber Generator version 0.2*
G04 Scale: 100 percent, Rotated: No, Reflected: No *
G04 Dimensions in millimeters *
G04 leading zeros omitted , absolute positions ,4 integer and 5 decimal *
%FSLAX45Y45*%
%MOMM*%

%ADD10C,0.2540*%
%ADD11C,1.5240*%
%ADD12C,1.7780*%
%ADD13C,1.1000*%
%ADD14C,1.5700*%
%ADD15R,1.5700X1.5700*%

%LPD*%
D10*
X482587Y-2451100D02*
G01*
X161023Y-2451100D01*
X126987Y-2482087D01*
X126987Y-4189475D01*
X168643Y-4241800D01*
X2395207Y-4241800D01*
X2463787Y-4163059D01*
X2463787Y-3394201D01*
X2428227Y-3365500D01*
X2086597Y-3365500D01*
X2057387Y-3399281D01*
X2057387Y-3732275D01*
X2077453Y-3752342D01*
X482587Y-2705100D02*
G01*
X581139Y-2705100D01*
X609587Y-2731769D01*
X609587Y-3410965D01*
X578853Y-3441700D01*
X237731Y-3441700D01*
X203187Y-3473957D01*
X203187Y-4015739D01*
X237223Y-4051300D01*
X2315959Y-4051300D01*
X2349487Y-4018534D01*
X2349487Y-3770375D01*
X2331453Y-3752342D01*
X482587Y-2197100D02*
G01*
X457187Y-2197100D01*
X152387Y-1892300D01*
X152387Y-610615D01*
X210045Y-571500D01*
X1452105Y-571500D01*
X1498587Y-613155D01*
X1498587Y-3427475D01*
X1823453Y-3752342D01*
X482587Y-1943100D02*
G01*
X469887Y-1943100D01*
X228587Y-1701800D01*
X228587Y-681735D01*
X265925Y-647700D01*
X1376667Y-647700D01*
X1422387Y-697992D01*
X1422387Y-3605275D01*
X1569453Y-3752342D01*
X3086087Y-2781300D02*
G01*
X3201403Y-2781300D01*
X3225787Y-2816859D01*
X3225787Y-2816859D01*
X3225787Y-4636007D01*
X2585453Y-5276342D01*
X3086087Y-2527300D02*
G01*
X2623807Y-2527300D01*
X2590787Y-2559303D01*
X2590787Y-3747007D01*
X2585453Y-3752342D01*
X482587Y-1689100D02*
G01*
X292087Y-1498600D01*
X292087Y-749045D01*
X292087Y-749045D01*
X330949Y-711200D01*
X1284973Y-711200D01*
X1333487Y-751839D01*
X1333487Y-3734307D01*
X1315453Y-3752342D01*
X482587Y-1435100D02*
G01*
X375145Y-1435100D01*
X355587Y-1396237D01*
X355587Y-832865D01*
X395973Y-787400D01*
X1181595Y-787400D01*
X1244587Y-834643D01*
X1244587Y-3569207D01*
X1061453Y-3752342D01*
X482587Y-1181100D02*
G01*
X482587Y-913637D01*
X530085Y-850900D01*
X1078725Y-850900D01*
X1142987Y-895857D01*
X1142987Y-3416807D01*
X807453Y-3752342D01*
X3022587Y-5880100D02*
G01*
X3022587Y-6061455D01*
X3052813Y-6108700D01*
X3575037Y-6108700D01*
X3619487Y-6052057D01*
X3619487Y-5548375D01*
X3347453Y-5276342D01*
X3093453Y-5276253D02*
G01*
X3276600Y-5588000D01*
X3276602Y-5880100D01*
X990587Y-2959100D02*
G01*
X990587Y-2705100D01*
X990597Y-2451100D02*
G01*
X990597Y-2705100D01*
X990587Y-2451100D02*
G01*
X990587Y-2197100D01*
X990597Y-1943100D02*
G01*
X990597Y-2197100D01*
X990587Y-1943100D02*
G01*
X990587Y-1689100D01*
X990597Y-1435100D02*
G01*
X990597Y-1689100D01*
X990597Y-1181100D02*
G01*
X990597Y-1435100D01*
X736597Y-2959100D02*
G01*
X736597Y-2705100D01*
X736597Y-1943100D02*
G01*
X736597Y-2197100D01*
X736597Y-2451100D02*
G01*
X736597Y-2705100D01*
X736597Y-1435100D02*
G01*
X736597Y-1689100D01*
X736597Y-2197100D02*
G01*
X736597Y-2451100D01*
X736597Y-1689100D02*
G01*
X736597Y-1943100D01*
X736597Y-1181100D02*
G01*
X736597Y-1435100D01*
X3733797Y-2043102D02*
G01*
X3557597Y-2043102D01*
X3403597Y-2197100D01*
X3403597Y-2463815D01*
X3086112Y-2781300D01*
X3733797Y-1843100D02*
G01*
X3401999Y-1843100D01*
X3162297Y-2082800D01*
X3162297Y-2451115D01*
X3086112Y-2527300D01*
D11*
G01*
X1689100Y-1549400D03*
G01*
X1943100Y-1549400D03*
G01*
X2197100Y-1549400D03*
G01*
X2451100Y-1549400D03*
G01*
X2705100Y-1549400D03*
G01*
X2959100Y-1549400D03*
G01*
X3086100Y-2527300D03*
G01*
X3086100Y-2781300D03*
D12*
G01*
X553453Y-5276253D03*
G01*
X807453Y-5276253D03*
G01*
X1061453Y-5276253D03*
G01*
X1315453Y-5276253D03*
G01*
X1569453Y-5276253D03*
G01*
X1823453Y-5276253D03*
G01*
X2077453Y-5276253D03*
G01*
X2331453Y-5276253D03*
G01*
X2585453Y-5276253D03*
G01*
X2839453Y-5276253D03*
G01*
X3093453Y-5276253D03*
G01*
X3347453Y-5276253D03*
G01*
X3347453Y-3752253D03*
G01*
X3093453Y-3752253D03*
G01*
X2839453Y-3752253D03*
G01*
X2585453Y-3752253D03*
G01*
X2331453Y-3752253D03*
G01*
X2077453Y-3752253D03*
G01*
X1823453Y-3752253D03*
G01*
X1569453Y-3752253D03*
G01*
X1315453Y-3752253D03*
G01*
X1061453Y-3752253D03*
G01*
X807453Y-3752253D03*
G01*
X553453Y-3752253D03*
G01*
X553453Y-4514253D03*
G01*
X553453Y-4768253D03*
G01*
X553453Y-5022253D03*
G01*
X3601453Y-4133253D03*
G01*
X3601453Y-4387253D03*
G01*
X3601453Y-4641253D03*
G01*
X3601453Y-4895253D03*
G01*
X3601453Y-5149253D03*
G01*
X3601453Y-3879253D03*
D13*
G01*
X3733800Y-2043099D03*
G01*
X3733800Y-1843100D03*
D14*
G01*
X482600Y-1181100D03*
G01*
X482600Y-1435100D03*
G01*
X482600Y-1689100D03*
G01*
X482600Y-1943100D03*
G01*
X482600Y-2197100D03*
G01*
X482600Y-2451100D03*
G01*
X482600Y-2705100D03*
G01*
X736600Y-2705100D03*
G01*
X736600Y-2451100D03*
G01*
X736600Y-2197100D03*
G01*
X736600Y-1943100D03*
G01*
X736600Y-1689100D03*
G01*
X736600Y-1435100D03*
G01*
X736600Y-1181100D03*
D15*
G01*
X990600Y-1181100D03*
G01*
X990600Y-1435100D03*
G01*
X990600Y-1689100D03*
G01*
X990600Y-1943100D03*
G01*
X990600Y-2197100D03*
G01*
X990600Y-2451100D03*
G01*
X990600Y-2705100D03*
D14*
G01*
X3022602Y-5880100D03*
G01*
X3276602Y-5880100D03*
G01*
X482600Y-2959100D03*
G01*
X736600Y-2959100D03*
D15*
G01*
X990600Y-2959100D03*
M02*
