G04 Layer: TopSolderMaskLayer*
G04 EasyEDA v6.5.46, 2025-08-30 12:54:10*
G04 04c061e2933c4fd480ff2fcb95437ea8,10*
G04 Gerber Generator version 0.2*
G04 Scale: 100 percent, Rotated: No, Reflected: No *
G04 Dimensions in millimeters *
G04 leading zeros omitted , absolute positions ,4 integer and 5 decimal *
%FSLAX45Y45*%
%MOMM*%

%AMMACRO1*4,1,8,-0.8274,-0.8871,-0.8871,-0.8272,-0.8871,0.8274,-0.8274,0.8871,0.8272,0.8871,0.8871,0.8274,0.8871,-0.8272,0.8272,-0.8871,-0.8274,-0.8871,0*%
%ADD10C,1.6256*%
%ADD11C,1.9820*%
%ADD12C,1.2000*%
%ADD13C,1.7740*%
%ADD14MACRO1*%

%LPD*%
D10*
G01*
X1689100Y-1549400D03*
G01*
X1943100Y-1549400D03*
G01*
X2197100Y-1549400D03*
G01*
X2451100Y-1549400D03*
G01*
X2705100Y-1549400D03*
G01*
X2959100Y-1549400D03*
G01*
X3086100Y-2527300D03*
G01*
X3086100Y-2781300D03*
D11*
G01*
X553453Y-5276253D03*
G01*
X807453Y-5276253D03*
G01*
X1061453Y-5276253D03*
G01*
X1315453Y-5276253D03*
G01*
X1569453Y-5276253D03*
G01*
X1823453Y-5276253D03*
G01*
X2077453Y-5276253D03*
G01*
X2331453Y-5276253D03*
G01*
X2585453Y-5276253D03*
G01*
X2839453Y-5276253D03*
G01*
X3093453Y-5276253D03*
G01*
X3347453Y-5276253D03*
G01*
X3347453Y-3752253D03*
G01*
X3093453Y-3752253D03*
G01*
X2839453Y-3752253D03*
G01*
X2585453Y-3752253D03*
G01*
X2331453Y-3752253D03*
G01*
X2077453Y-3752253D03*
G01*
X1823453Y-3752253D03*
G01*
X1569453Y-3752253D03*
G01*
X1315453Y-3752253D03*
G01*
X1061453Y-3752253D03*
G01*
X807453Y-3752253D03*
G01*
X553453Y-3752253D03*
G01*
X553453Y-4514253D03*
G01*
X553453Y-4768253D03*
G01*
X553453Y-5022253D03*
G01*
X3601453Y-4133253D03*
G01*
X3601453Y-4387253D03*
G01*
X3601453Y-4641253D03*
G01*
X3601453Y-4895253D03*
G01*
X3601453Y-5149253D03*
G01*
X3601453Y-3879253D03*
D12*
G01*
X3733800Y-2043099D03*
G01*
X3733800Y-1843100D03*
D13*
G01*
X482600Y-1181100D03*
G01*
X482600Y-1435100D03*
G01*
X482600Y-1689100D03*
G01*
X482600Y-1943100D03*
G01*
X482600Y-2197100D03*
G01*
X482600Y-2451100D03*
G01*
X482600Y-2705100D03*
G01*
X736600Y-2705100D03*
G01*
X736600Y-2451100D03*
G01*
X736600Y-2197100D03*
G01*
X736600Y-1943100D03*
G01*
X736600Y-1689100D03*
G01*
X736600Y-1435100D03*
G01*
X736600Y-1181100D03*
D14*
G01*
X990600Y-1181112D03*
G01*
X990600Y-1435112D03*
G01*
X990600Y-1689112D03*
G01*
X990600Y-1943112D03*
G01*
X990600Y-2197112D03*
G01*
X990600Y-2451112D03*
G01*
X990600Y-2705112D03*
D13*
G01*
X3022602Y-5880100D03*
G01*
X3276602Y-5880100D03*
G01*
X482600Y-2959100D03*
G01*
X736600Y-2959100D03*
D14*
G01*
X990600Y-2959112D03*
M02*
