G04 Layer: TopSilkscreenLayer*
G04 EasyEDA v6.5.46, 2025-08-30 12:54:10*
G04 04c061e2933c4fd480ff2fcb95437ea8,10*
G04 Gerber Generator version 0.2*
G04 Scale: 100 percent, Rotated: No, Reflected: No *
G04 Dimensions in millimeters *
G04 leading zeros omitted , absolute positions ,4 integer and 5 decimal *
%FSLAX45Y45*%
%MOMM*%

%ADD10C,0.1500*%
%ADD11C,0.2032*%
%ADD12C,0.1524*%
%ADD13C,0.2540*%

%LPD*%
G36*
X2992628Y-1323848D02*
G01*
X2990697Y-1324203D01*
X2987548Y-1325372D01*
X2983738Y-1327200D01*
X2979420Y-1329690D01*
X2975051Y-1332687D01*
X2971038Y-1336040D01*
X2967482Y-1339545D01*
X2966059Y-1341424D01*
X2964942Y-1343406D01*
X2963773Y-1339037D01*
X2962198Y-1335278D01*
X2960319Y-1332179D01*
X2958084Y-1329690D01*
X2955493Y-1327708D01*
X2952496Y-1326235D01*
X2949143Y-1325422D01*
X2945384Y-1325118D01*
X2941523Y-1325422D01*
X2938018Y-1326388D01*
X2934665Y-1328013D01*
X2931668Y-1330452D01*
X2929382Y-1333195D01*
X2927604Y-1336294D01*
X2926588Y-1339291D01*
X2925724Y-1346403D01*
X2925572Y-1368806D01*
X2936494Y-1368806D01*
X2936544Y-1352092D01*
X2937052Y-1347012D01*
X2937510Y-1345438D01*
X2939034Y-1343152D01*
X2941066Y-1341374D01*
X2943453Y-1340256D01*
X2946146Y-1339850D01*
X2947974Y-1339951D01*
X2951022Y-1340866D01*
X2952242Y-1341628D01*
X2954020Y-1344015D01*
X2955290Y-1347216D01*
X2956052Y-1351127D01*
X2956306Y-1355852D01*
X2956306Y-1368806D01*
X2925572Y-1368806D01*
X2925724Y-1376629D01*
X2926080Y-1378508D01*
X2926740Y-1380083D01*
X2927604Y-1381252D01*
X2928874Y-1382115D01*
X2930448Y-1382776D01*
X2932328Y-1383182D01*
X2991612Y-1383182D01*
X2993390Y-1382826D01*
X2994914Y-1382268D01*
X2996184Y-1381506D01*
X2997200Y-1380388D01*
X2997911Y-1379169D01*
X2998317Y-1377746D01*
X2998470Y-1376172D01*
X2998317Y-1374597D01*
X2997911Y-1373174D01*
X2997200Y-1371955D01*
X2995015Y-1369923D01*
X2993542Y-1369314D01*
X2991713Y-1368907D01*
X2966466Y-1368806D01*
X2966567Y-1361897D01*
X2967177Y-1358747D01*
X2968345Y-1356106D01*
X2970123Y-1353566D01*
X2971292Y-1352296D01*
X2974695Y-1349756D01*
X2979420Y-1346708D01*
X2995269Y-1337157D01*
X2996641Y-1335786D01*
X2997758Y-1334109D01*
X2998368Y-1331925D01*
X2998419Y-1329740D01*
X2998063Y-1327962D01*
X2997200Y-1326438D01*
X2995422Y-1324610D01*
X2994101Y-1324051D01*
G37*
G36*
X2933192Y-1399540D02*
G01*
X2929229Y-1400048D01*
X2927756Y-1400657D01*
X2925572Y-1402689D01*
X2924860Y-1403908D01*
X2924454Y-1405331D01*
X2924302Y-1406906D01*
X2924454Y-1408379D01*
X2924860Y-1409700D01*
X2925572Y-1410919D01*
X2926588Y-1411986D01*
X2927858Y-1412849D01*
X2929382Y-1413510D01*
X2933192Y-1414018D01*
X2989580Y-1414018D01*
X2993390Y-1413510D01*
X2994914Y-1412849D01*
X2996184Y-1411986D01*
X2997200Y-1410919D01*
X2997911Y-1409700D01*
X2998317Y-1408379D01*
X2998470Y-1406906D01*
X2998317Y-1405331D01*
X2997911Y-1403908D01*
X2997200Y-1402689D01*
X2995015Y-1400657D01*
X2993542Y-1400048D01*
X2989580Y-1399540D01*
G37*
G36*
X2679192Y-1316228D02*
G01*
X2677058Y-1316329D01*
X2675229Y-1316736D01*
X2673756Y-1317396D01*
X2672588Y-1318260D01*
X2671572Y-1319377D01*
X2670860Y-1320596D01*
X2670454Y-1322019D01*
X2670302Y-1323594D01*
X2670454Y-1325067D01*
X2670860Y-1326388D01*
X2671572Y-1327607D01*
X2672588Y-1328674D01*
X2673858Y-1329537D01*
X2675382Y-1330198D01*
X2679192Y-1330706D01*
X2735580Y-1330706D01*
X2739390Y-1330198D01*
X2740914Y-1329588D01*
X2742184Y-1328674D01*
X2743200Y-1327607D01*
X2743911Y-1326388D01*
X2744317Y-1325067D01*
X2744470Y-1323594D01*
X2744317Y-1322019D01*
X2743911Y-1320596D01*
X2743200Y-1319377D01*
X2741015Y-1317345D01*
X2739542Y-1316736D01*
X2737713Y-1316329D01*
G37*
G36*
X2679700Y-1346200D02*
G01*
X2677515Y-1346352D01*
X2675686Y-1346809D01*
X2674315Y-1347622D01*
X2672588Y-1350010D01*
X2671673Y-1353159D01*
X2671572Y-1359662D01*
X2671775Y-1363167D01*
X2672334Y-1365504D01*
X2673350Y-1367231D01*
X2674874Y-1368298D01*
X2681224Y-1370330D01*
X2720340Y-1380744D01*
X2679192Y-1391666D01*
X2676042Y-1392682D01*
X2674061Y-1393647D01*
X2672791Y-1394917D01*
X2671978Y-1396847D01*
X2671622Y-1399794D01*
X2671673Y-1408176D01*
X2672029Y-1409954D01*
X2672588Y-1411478D01*
X2674315Y-1413865D01*
X2675686Y-1414627D01*
X2677515Y-1415135D01*
X2679700Y-1415288D01*
X2736342Y-1415288D01*
X2739898Y-1414780D01*
X2741320Y-1414119D01*
X2743352Y-1412290D01*
X2744368Y-1410004D01*
X2744368Y-1407210D01*
X2743352Y-1404670D01*
X2742438Y-1403604D01*
X2741320Y-1402842D01*
X2739898Y-1402283D01*
X2738221Y-1401927D01*
X2686812Y-1401826D01*
X2737815Y-1388973D01*
X2741269Y-1387297D01*
X2742641Y-1385925D01*
X2743758Y-1384147D01*
X2744368Y-1381963D01*
X2744368Y-1379169D01*
X2744012Y-1377746D01*
X2742692Y-1375410D01*
X2740863Y-1373886D01*
X2738882Y-1372870D01*
X2732532Y-1371092D01*
X2686812Y-1359408D01*
X2738221Y-1359306D01*
X2739898Y-1358950D01*
X2741320Y-1358392D01*
X2742438Y-1357630D01*
X2743352Y-1356664D01*
X2743962Y-1355547D01*
X2744368Y-1354226D01*
X2744368Y-1351381D01*
X2743962Y-1350060D01*
X2743352Y-1348943D01*
X2742438Y-1347978D01*
X2741320Y-1347216D01*
X2739898Y-1346657D01*
X2738221Y-1346301D01*
G37*
G36*
X2453386Y-1264412D02*
G01*
X2447899Y-1264666D01*
X2442768Y-1265428D01*
X2438095Y-1266698D01*
X2433828Y-1268476D01*
X2429865Y-1270863D01*
X2426411Y-1273657D01*
X2423414Y-1276959D01*
X2420874Y-1280668D01*
X2418892Y-1284833D01*
X2417470Y-1289354D01*
X2416606Y-1294333D01*
X2416302Y-1299718D01*
X2427986Y-1299718D01*
X2428138Y-1296771D01*
X2428697Y-1293977D01*
X2429560Y-1291437D01*
X2430780Y-1289050D01*
X2432456Y-1286764D01*
X2434539Y-1284782D01*
X2436926Y-1283106D01*
X2439670Y-1281684D01*
X2442616Y-1280566D01*
X2445816Y-1279753D01*
X2449322Y-1279296D01*
X2453132Y-1279144D01*
X2457297Y-1279296D01*
X2461056Y-1279855D01*
X2464511Y-1280718D01*
X2467610Y-1281938D01*
X2470302Y-1283462D01*
X2472639Y-1285189D01*
X2474518Y-1287119D01*
X2475992Y-1289304D01*
X2477211Y-1291742D01*
X2478074Y-1294333D01*
X2478633Y-1296974D01*
X2478684Y-1301851D01*
X2477922Y-1305763D01*
X2476398Y-1309319D01*
X2473960Y-1312519D01*
X2470708Y-1315262D01*
X2466644Y-1317396D01*
X2464308Y-1318260D01*
X2458974Y-1319377D01*
X2453132Y-1319784D01*
X2447340Y-1319428D01*
X2442210Y-1318260D01*
X2437841Y-1316482D01*
X2435961Y-1315415D01*
X2434336Y-1314196D01*
X2431592Y-1311198D01*
X2429510Y-1307846D01*
X2428341Y-1303934D01*
X2427986Y-1299718D01*
X2416302Y-1299718D01*
X2416454Y-1303782D01*
X2416911Y-1307592D01*
X2417724Y-1311148D01*
X2418842Y-1314450D01*
X2420366Y-1317498D01*
X2422144Y-1320342D01*
X2424176Y-1322984D01*
X2426462Y-1325372D01*
X2429002Y-1327505D01*
X2431796Y-1329385D01*
X2434844Y-1330960D01*
X2438146Y-1332230D01*
X2441651Y-1333246D01*
X2445308Y-1333957D01*
X2449169Y-1334363D01*
X2453132Y-1334516D01*
X2457094Y-1334363D01*
X2460955Y-1333957D01*
X2464612Y-1333246D01*
X2468118Y-1332230D01*
X2471521Y-1330960D01*
X2474671Y-1329436D01*
X2477516Y-1327658D01*
X2480056Y-1325626D01*
X2482342Y-1323187D01*
X2484374Y-1320546D01*
X2486152Y-1317599D01*
X2487676Y-1314450D01*
X2488895Y-1311046D01*
X2489758Y-1307388D01*
X2490317Y-1303528D01*
X2490470Y-1299464D01*
X2490317Y-1295400D01*
X2489758Y-1291539D01*
X2488895Y-1287881D01*
X2487676Y-1284478D01*
X2486253Y-1281328D01*
X2484475Y-1278432D01*
X2482443Y-1275842D01*
X2477516Y-1271422D01*
X2474722Y-1269542D01*
X2471674Y-1267968D01*
X2468372Y-1266698D01*
X2464866Y-1265682D01*
X2461209Y-1264970D01*
X2457348Y-1264564D01*
G37*
G36*
X2425700Y-1346200D02*
G01*
X2423515Y-1346352D01*
X2421686Y-1346809D01*
X2420315Y-1347622D01*
X2418588Y-1350010D01*
X2417673Y-1353159D01*
X2417572Y-1359662D01*
X2417775Y-1363167D01*
X2418334Y-1365504D01*
X2419350Y-1367231D01*
X2420874Y-1368298D01*
X2427224Y-1370330D01*
X2466340Y-1380744D01*
X2425192Y-1391666D01*
X2422042Y-1392682D01*
X2420061Y-1393647D01*
X2418791Y-1394917D01*
X2417978Y-1396847D01*
X2417622Y-1399794D01*
X2417673Y-1408176D01*
X2418029Y-1409954D01*
X2418588Y-1411478D01*
X2420315Y-1413865D01*
X2421686Y-1414627D01*
X2423515Y-1415135D01*
X2425700Y-1415288D01*
X2482342Y-1415288D01*
X2485898Y-1414780D01*
X2487320Y-1414119D01*
X2489352Y-1412290D01*
X2490368Y-1410004D01*
X2490368Y-1407210D01*
X2489352Y-1404670D01*
X2488438Y-1403604D01*
X2487320Y-1402842D01*
X2485898Y-1402283D01*
X2484221Y-1401927D01*
X2432812Y-1401826D01*
X2483815Y-1388973D01*
X2487269Y-1387297D01*
X2488641Y-1385925D01*
X2489758Y-1384147D01*
X2490368Y-1381963D01*
X2490368Y-1379169D01*
X2490012Y-1377746D01*
X2488692Y-1375410D01*
X2486863Y-1373886D01*
X2484882Y-1372870D01*
X2478532Y-1371092D01*
X2432812Y-1359408D01*
X2484221Y-1359306D01*
X2485898Y-1358950D01*
X2487320Y-1358392D01*
X2488438Y-1357630D01*
X2489352Y-1356664D01*
X2489962Y-1355547D01*
X2490368Y-1354226D01*
X2490368Y-1351381D01*
X2489962Y-1350060D01*
X2489352Y-1348943D01*
X2488438Y-1347978D01*
X2487320Y-1347216D01*
X2485898Y-1346657D01*
X2484221Y-1346301D01*
G37*
G36*
X2230628Y-1212850D02*
G01*
X2228342Y-1213104D01*
X2226056Y-1213866D01*
X2223566Y-1215186D01*
X2191766Y-1237488D01*
X2173478Y-1218285D01*
X2171903Y-1217218D01*
X2170277Y-1216609D01*
X2168652Y-1216406D01*
X2167432Y-1216507D01*
X2165248Y-1217523D01*
X2163470Y-1219504D01*
X2162810Y-1220724D01*
X2162403Y-1222044D01*
X2162352Y-1224635D01*
X2162860Y-1226515D01*
X2163927Y-1228140D01*
X2165553Y-1229918D01*
X2196338Y-1259332D01*
X2171192Y-1259332D01*
X2167229Y-1259840D01*
X2165756Y-1260449D01*
X2163572Y-1262481D01*
X2162860Y-1263700D01*
X2162454Y-1265123D01*
X2162302Y-1266698D01*
X2162454Y-1268272D01*
X2162860Y-1269644D01*
X2163572Y-1270812D01*
X2165858Y-1272641D01*
X2167382Y-1273302D01*
X2171192Y-1273810D01*
X2227427Y-1273759D01*
X2231339Y-1273352D01*
X2232914Y-1272794D01*
X2234336Y-1271625D01*
X2235454Y-1270254D01*
X2236216Y-1268476D01*
X2236470Y-1266698D01*
X2236317Y-1265123D01*
X2235911Y-1263700D01*
X2235200Y-1262481D01*
X2233015Y-1260449D01*
X2231542Y-1259840D01*
X2229713Y-1259433D01*
X2212848Y-1259332D01*
X2201418Y-1247394D01*
X2232710Y-1227175D01*
X2234488Y-1225651D01*
X2235758Y-1223721D01*
X2236368Y-1221181D01*
X2236368Y-1218234D01*
X2235454Y-1215694D01*
X2234692Y-1214628D01*
X2232761Y-1213307D01*
X2231745Y-1212951D01*
G37*
G36*
X2184146Y-1287018D02*
G01*
X2181809Y-1287272D01*
X2179421Y-1287983D01*
X2176983Y-1289151D01*
X2174494Y-1290828D01*
X2172055Y-1292809D01*
X2169820Y-1295146D01*
X2167737Y-1297889D01*
X2165858Y-1300988D01*
X2164283Y-1304544D01*
X2163165Y-1308303D01*
X2162505Y-1312265D01*
X2162302Y-1316482D01*
X2162454Y-1319987D01*
X2162911Y-1323390D01*
X2163724Y-1326743D01*
X2164842Y-1329944D01*
X2166264Y-1333042D01*
X2167940Y-1335887D01*
X2169922Y-1338630D01*
X2172208Y-1341120D01*
X2174849Y-1343253D01*
X2177745Y-1345184D01*
X2180844Y-1346860D01*
X2184146Y-1348232D01*
X2187600Y-1349349D01*
X2191258Y-1350111D01*
X2195220Y-1350619D01*
X2202027Y-1350721D01*
X2207107Y-1350213D01*
X2211933Y-1349197D01*
X2216353Y-1347673D01*
X2220518Y-1345641D01*
X2224328Y-1343253D01*
X2227732Y-1340307D01*
X2230678Y-1336903D01*
X2232964Y-1333042D01*
X2234742Y-1328724D01*
X2235911Y-1324051D01*
X2236419Y-1318971D01*
X2236317Y-1312519D01*
X2235860Y-1309116D01*
X2235047Y-1305915D01*
X2232710Y-1300327D01*
X2231288Y-1297940D01*
X2229662Y-1295755D01*
X2225903Y-1292199D01*
X2221992Y-1289558D01*
X2219960Y-1288542D01*
X2216099Y-1287373D01*
X2212594Y-1287018D01*
X2211273Y-1287119D01*
X2208987Y-1288034D01*
X2207260Y-1289710D01*
X2206345Y-1291894D01*
X2206345Y-1294536D01*
X2207260Y-1296822D01*
X2208022Y-1297686D01*
X2210054Y-1298905D01*
X2215438Y-1301140D01*
X2217928Y-1302562D01*
X2220010Y-1304290D01*
X2221738Y-1306322D01*
X2223058Y-1308608D01*
X2224024Y-1311148D01*
X2224582Y-1313942D01*
X2224786Y-1316990D01*
X2224633Y-1319834D01*
X2224176Y-1322476D01*
X2223363Y-1324914D01*
X2222246Y-1327150D01*
X2220671Y-1329080D01*
X2218740Y-1330807D01*
X2216505Y-1332382D01*
X2213864Y-1333754D01*
X2210917Y-1334770D01*
X2207564Y-1335481D01*
X2203907Y-1335887D01*
X2199894Y-1336040D01*
X2194001Y-1335684D01*
X2188870Y-1334719D01*
X2184349Y-1333042D01*
X2180590Y-1330706D01*
X2177694Y-1327810D01*
X2175611Y-1324457D01*
X2174392Y-1320698D01*
X2173986Y-1316482D01*
X2174138Y-1313789D01*
X2174595Y-1311351D01*
X2175408Y-1309116D01*
X2176526Y-1307084D01*
X2178050Y-1305255D01*
X2179878Y-1303528D01*
X2187194Y-1298752D01*
X2188972Y-1297178D01*
X2190140Y-1295552D01*
X2190496Y-1293114D01*
X2189988Y-1290777D01*
X2188464Y-1288796D01*
X2186482Y-1287475D01*
X2185365Y-1287119D01*
G37*
G36*
X2213610Y-1360170D02*
G01*
X2211019Y-1360271D01*
X2206447Y-1361287D01*
X2202738Y-1363218D01*
X2199690Y-1365859D01*
X2197150Y-1369314D01*
X2195118Y-1373479D01*
X2191766Y-1383893D01*
X2189632Y-1392529D01*
X2188057Y-1396746D01*
X2186889Y-1398828D01*
X2185619Y-1400454D01*
X2183993Y-1401622D01*
X2182114Y-1402232D01*
X2181098Y-1402334D01*
X2179421Y-1402130D01*
X2177846Y-1401419D01*
X2176475Y-1400352D01*
X2174138Y-1397000D01*
X2173325Y-1394917D01*
X2172868Y-1392529D01*
X2172716Y-1389888D01*
X2172868Y-1387043D01*
X2173274Y-1384604D01*
X2173986Y-1382623D01*
X2175002Y-1380998D01*
X2177745Y-1378458D01*
X2183739Y-1374902D01*
X2185416Y-1373378D01*
X2186381Y-1371854D01*
X2186686Y-1369822D01*
X2186584Y-1368501D01*
X2185568Y-1366215D01*
X2183485Y-1364386D01*
X2182317Y-1363726D01*
X2179828Y-1363218D01*
X2176983Y-1363573D01*
X2173986Y-1364742D01*
X2171192Y-1366621D01*
X2168398Y-1369314D01*
X2167077Y-1371041D01*
X2164943Y-1375105D01*
X2163318Y-1379982D01*
X2162403Y-1385671D01*
X2162454Y-1392834D01*
X2162911Y-1396492D01*
X2163724Y-1399946D01*
X2164842Y-1403096D01*
X2166213Y-1405991D01*
X2167890Y-1408480D01*
X2169820Y-1410665D01*
X2171954Y-1412494D01*
X2174341Y-1413916D01*
X2176830Y-1414983D01*
X2179523Y-1415592D01*
X2182368Y-1415796D01*
X2185416Y-1415592D01*
X2188159Y-1415034D01*
X2190597Y-1414068D01*
X2192782Y-1412748D01*
X2194712Y-1411071D01*
X2196439Y-1409141D01*
X2198014Y-1406906D01*
X2200605Y-1401673D01*
X2202789Y-1395171D01*
X2205990Y-1382268D01*
X2207514Y-1379220D01*
X2209546Y-1376680D01*
X2210765Y-1375664D01*
X2212136Y-1374952D01*
X2213711Y-1374546D01*
X2215388Y-1374394D01*
X2217470Y-1374648D01*
X2219401Y-1375410D01*
X2221128Y-1376680D01*
X2222754Y-1378458D01*
X2224074Y-1380642D01*
X2225040Y-1383131D01*
X2225598Y-1385976D01*
X2225802Y-1389126D01*
X2225446Y-1393240D01*
X2224278Y-1396492D01*
X2222550Y-1399184D01*
X2220468Y-1401064D01*
X2214880Y-1404112D01*
X2212289Y-1405229D01*
X2210562Y-1406652D01*
X2209393Y-1408379D01*
X2209038Y-1410462D01*
X2209139Y-1411884D01*
X2209495Y-1413205D01*
X2210816Y-1415288D01*
X2213000Y-1416608D01*
X2214168Y-1416964D01*
X2215388Y-1417066D01*
X2217674Y-1416862D01*
X2220010Y-1416304D01*
X2222398Y-1415338D01*
X2224786Y-1414018D01*
X2227072Y-1412392D01*
X2229104Y-1410512D01*
X2230882Y-1408430D01*
X2232406Y-1406144D01*
X2234184Y-1402486D01*
X2235454Y-1398320D01*
X2236216Y-1393698D01*
X2236470Y-1388618D01*
X2236266Y-1384350D01*
X2235708Y-1380337D01*
X2234742Y-1376730D01*
X2233422Y-1373378D01*
X2231847Y-1370279D01*
X2230018Y-1367586D01*
X2227783Y-1365351D01*
X2225294Y-1363472D01*
X2222652Y-1362049D01*
X2219807Y-1360982D01*
X2216810Y-1360373D01*
G37*
G36*
X1959610Y-1286256D02*
G01*
X1957019Y-1286357D01*
X1952447Y-1287272D01*
X1950466Y-1288034D01*
X1947164Y-1290370D01*
X1944370Y-1293368D01*
X1942084Y-1297228D01*
X1940306Y-1301750D01*
X1937004Y-1312672D01*
X1935225Y-1319784D01*
X1934514Y-1321816D01*
X1932279Y-1325676D01*
X1930907Y-1327150D01*
X1929079Y-1327912D01*
X1927098Y-1328166D01*
X1925421Y-1327962D01*
X1923846Y-1327353D01*
X1922475Y-1326286D01*
X1921256Y-1324864D01*
X1920138Y-1322984D01*
X1919325Y-1320800D01*
X1918868Y-1318361D01*
X1918716Y-1315720D01*
X1918868Y-1312875D01*
X1919274Y-1310487D01*
X1919986Y-1308557D01*
X1921002Y-1307084D01*
X1923745Y-1304493D01*
X1929739Y-1300784D01*
X1931416Y-1299464D01*
X1932381Y-1297889D01*
X1932686Y-1295654D01*
X1932584Y-1294333D01*
X1931568Y-1292047D01*
X1930654Y-1291082D01*
X1928317Y-1289761D01*
X1927098Y-1289405D01*
X1924405Y-1289405D01*
X1921510Y-1290167D01*
X1918563Y-1291590D01*
X1915769Y-1293876D01*
X1913077Y-1297025D01*
X1911908Y-1298905D01*
X1910080Y-1303274D01*
X1908759Y-1308557D01*
X1908403Y-1311503D01*
X1908454Y-1318768D01*
X1908911Y-1322527D01*
X1909724Y-1325981D01*
X1910842Y-1329182D01*
X1912213Y-1332077D01*
X1913889Y-1334566D01*
X1915820Y-1336751D01*
X1917954Y-1338580D01*
X1920341Y-1339900D01*
X1922830Y-1340866D01*
X1925523Y-1341424D01*
X1928368Y-1341628D01*
X1931416Y-1341424D01*
X1934159Y-1340866D01*
X1936597Y-1339900D01*
X1938782Y-1338580D01*
X1940712Y-1336903D01*
X1942439Y-1335024D01*
X1944014Y-1332839D01*
X1945386Y-1330452D01*
X1947722Y-1324559D01*
X1951989Y-1308354D01*
X1953514Y-1305153D01*
X1955546Y-1302766D01*
X1956765Y-1301750D01*
X1958136Y-1301038D01*
X1959711Y-1300632D01*
X1961388Y-1300480D01*
X1963470Y-1300734D01*
X1965401Y-1301496D01*
X1967128Y-1302766D01*
X1968754Y-1304544D01*
X1970074Y-1306728D01*
X1971039Y-1309166D01*
X1971598Y-1311910D01*
X1971802Y-1314958D01*
X1971446Y-1319276D01*
X1970278Y-1322578D01*
X1968550Y-1325067D01*
X1966468Y-1326896D01*
X1963928Y-1328572D01*
X1958289Y-1331264D01*
X1956562Y-1332738D01*
X1955393Y-1334465D01*
X1955038Y-1336548D01*
X1955139Y-1337868D01*
X1956054Y-1340154D01*
X1956816Y-1341120D01*
X1959000Y-1342644D01*
X1961388Y-1343152D01*
X1963674Y-1342948D01*
X1966010Y-1342390D01*
X1968398Y-1341424D01*
X1970786Y-1340104D01*
X1973072Y-1338427D01*
X1975104Y-1336548D01*
X1976882Y-1334363D01*
X1978406Y-1331976D01*
X1980184Y-1328318D01*
X1981454Y-1324203D01*
X1982216Y-1319682D01*
X1982470Y-1314704D01*
X1982266Y-1310386D01*
X1981707Y-1306372D01*
X1980742Y-1302664D01*
X1979422Y-1299210D01*
X1977847Y-1296212D01*
X1976018Y-1293622D01*
X1973783Y-1291386D01*
X1971293Y-1289558D01*
X1968652Y-1288135D01*
X1965807Y-1287068D01*
X1962810Y-1286459D01*
G37*
G36*
X1958593Y-1353566D02*
G01*
X1957273Y-1353667D01*
X1954987Y-1354582D01*
X1954022Y-1355344D01*
X1952701Y-1357477D01*
X1952243Y-1359916D01*
X1952345Y-1361338D01*
X1952701Y-1362506D01*
X1953260Y-1363472D01*
X1954987Y-1364945D01*
X1957273Y-1366113D01*
X1961438Y-1367790D01*
X1963928Y-1369314D01*
X1966010Y-1371092D01*
X1967738Y-1373124D01*
X1969058Y-1375410D01*
X1970024Y-1377950D01*
X1970582Y-1380744D01*
X1970786Y-1383792D01*
X1970633Y-1386484D01*
X1970176Y-1389075D01*
X1969363Y-1391462D01*
X1968246Y-1393698D01*
X1966671Y-1395730D01*
X1964740Y-1397508D01*
X1962505Y-1399032D01*
X1959864Y-1400302D01*
X1956917Y-1401419D01*
X1953564Y-1402181D01*
X1949907Y-1402689D01*
X1945893Y-1402842D01*
X1940001Y-1402486D01*
X1934870Y-1401521D01*
X1930349Y-1399844D01*
X1926589Y-1397508D01*
X1923694Y-1394612D01*
X1921611Y-1391259D01*
X1920392Y-1387500D01*
X1919986Y-1383284D01*
X1920138Y-1380591D01*
X1920595Y-1378051D01*
X1921408Y-1375765D01*
X1922525Y-1373632D01*
X1924050Y-1371803D01*
X1925878Y-1370076D01*
X1930400Y-1367028D01*
X1933193Y-1365402D01*
X1935632Y-1363268D01*
X1936140Y-1362303D01*
X1936496Y-1359916D01*
X1935988Y-1357579D01*
X1934464Y-1355598D01*
X1932482Y-1354277D01*
X1931365Y-1353921D01*
X1930146Y-1353820D01*
X1927809Y-1354023D01*
X1925421Y-1354683D01*
X1922983Y-1355801D01*
X1920493Y-1357376D01*
X1918055Y-1359357D01*
X1915820Y-1361744D01*
X1913737Y-1364589D01*
X1911857Y-1367790D01*
X1910283Y-1371346D01*
X1909165Y-1375105D01*
X1908505Y-1379067D01*
X1908302Y-1383284D01*
X1908454Y-1386789D01*
X1908911Y-1390192D01*
X1909724Y-1393545D01*
X1910842Y-1396746D01*
X1912264Y-1399794D01*
X1913940Y-1402638D01*
X1915922Y-1405280D01*
X1918207Y-1407668D01*
X1920849Y-1409903D01*
X1923745Y-1411833D01*
X1926843Y-1413459D01*
X1933600Y-1415897D01*
X1937257Y-1416659D01*
X1941220Y-1417167D01*
X1948027Y-1417269D01*
X1953107Y-1416761D01*
X1957933Y-1415846D01*
X1962353Y-1414424D01*
X1966518Y-1412443D01*
X1970328Y-1410055D01*
X1972056Y-1408684D01*
X1975307Y-1405229D01*
X1977898Y-1401572D01*
X1979930Y-1397558D01*
X1981454Y-1393190D01*
X1982216Y-1388313D01*
X1982470Y-1382776D01*
X1982317Y-1379220D01*
X1981860Y-1375867D01*
X1981047Y-1372717D01*
X1978710Y-1367129D01*
X1977288Y-1364742D01*
X1975662Y-1362557D01*
X1971903Y-1358900D01*
X1969973Y-1357426D01*
X1965960Y-1355344D01*
X1962099Y-1354023D01*
G37*
G36*
X1721612Y-1285494D02*
G01*
X1719122Y-1285849D01*
X1717293Y-1287018D01*
X1716125Y-1289253D01*
X1715770Y-1292352D01*
X1715770Y-1326134D01*
X1695196Y-1326134D01*
X1695094Y-1294384D01*
X1694332Y-1291945D01*
X1692859Y-1290320D01*
X1690979Y-1289405D01*
X1688642Y-1289405D01*
X1686610Y-1290320D01*
X1685137Y-1291945D01*
X1684629Y-1293063D01*
X1684274Y-1295908D01*
X1684274Y-1326134D01*
X1666748Y-1326134D01*
X1666646Y-1291691D01*
X1665884Y-1289202D01*
X1664411Y-1287526D01*
X1662379Y-1286611D01*
X1659940Y-1286611D01*
X1657908Y-1287526D01*
X1656435Y-1289202D01*
X1655927Y-1290320D01*
X1655572Y-1293368D01*
X1655622Y-1333195D01*
X1656130Y-1335735D01*
X1657045Y-1337716D01*
X1657654Y-1338529D01*
X1659382Y-1339596D01*
X1661668Y-1340358D01*
X1664462Y-1340612D01*
X1718310Y-1340612D01*
X1722323Y-1340104D01*
X1723898Y-1339443D01*
X1725168Y-1338580D01*
X1726031Y-1337310D01*
X1726692Y-1335735D01*
X1727200Y-1331722D01*
X1727098Y-1290675D01*
X1726336Y-1288034D01*
X1725675Y-1287018D01*
X1723898Y-1285849D01*
G37*
G36*
X1704593Y-1353566D02*
G01*
X1703273Y-1353667D01*
X1700987Y-1354582D01*
X1700022Y-1355344D01*
X1698701Y-1357477D01*
X1698243Y-1359916D01*
X1698345Y-1361338D01*
X1698701Y-1362506D01*
X1699260Y-1363472D01*
X1700987Y-1364945D01*
X1703273Y-1366113D01*
X1707438Y-1367790D01*
X1709928Y-1369314D01*
X1712010Y-1371092D01*
X1713738Y-1373124D01*
X1715058Y-1375410D01*
X1716024Y-1377950D01*
X1716582Y-1380744D01*
X1716786Y-1383792D01*
X1716633Y-1386484D01*
X1716176Y-1389075D01*
X1715363Y-1391462D01*
X1714246Y-1393698D01*
X1712671Y-1395730D01*
X1710740Y-1397508D01*
X1708505Y-1399032D01*
X1705864Y-1400302D01*
X1702917Y-1401419D01*
X1699564Y-1402181D01*
X1695907Y-1402689D01*
X1691893Y-1402842D01*
X1686001Y-1402486D01*
X1680870Y-1401521D01*
X1676349Y-1399844D01*
X1672589Y-1397508D01*
X1669694Y-1394612D01*
X1667611Y-1391259D01*
X1666392Y-1387500D01*
X1665986Y-1383284D01*
X1666138Y-1380591D01*
X1666595Y-1378051D01*
X1667408Y-1375765D01*
X1668525Y-1373632D01*
X1670050Y-1371803D01*
X1671878Y-1370076D01*
X1676400Y-1367028D01*
X1679193Y-1365402D01*
X1681632Y-1363268D01*
X1682140Y-1362303D01*
X1682496Y-1359916D01*
X1681988Y-1357579D01*
X1680464Y-1355598D01*
X1678482Y-1354277D01*
X1677365Y-1353921D01*
X1676146Y-1353820D01*
X1673809Y-1354023D01*
X1671421Y-1354683D01*
X1668983Y-1355801D01*
X1666493Y-1357376D01*
X1664055Y-1359357D01*
X1661820Y-1361744D01*
X1659737Y-1364589D01*
X1657857Y-1367790D01*
X1656283Y-1371346D01*
X1655165Y-1375105D01*
X1654505Y-1379067D01*
X1654302Y-1383284D01*
X1654454Y-1386789D01*
X1654911Y-1390192D01*
X1655724Y-1393545D01*
X1656842Y-1396746D01*
X1658264Y-1399794D01*
X1659940Y-1402638D01*
X1661922Y-1405280D01*
X1664207Y-1407668D01*
X1666849Y-1409903D01*
X1669745Y-1411833D01*
X1672843Y-1413459D01*
X1679600Y-1415897D01*
X1683257Y-1416659D01*
X1687220Y-1417167D01*
X1694027Y-1417269D01*
X1699107Y-1416761D01*
X1703933Y-1415846D01*
X1708353Y-1414424D01*
X1712518Y-1412443D01*
X1716328Y-1410055D01*
X1718056Y-1408684D01*
X1721307Y-1405229D01*
X1723898Y-1401572D01*
X1725930Y-1397558D01*
X1727454Y-1393190D01*
X1728216Y-1388313D01*
X1728470Y-1382776D01*
X1728317Y-1379220D01*
X1727860Y-1375867D01*
X1727047Y-1372717D01*
X1724710Y-1367129D01*
X1723288Y-1364742D01*
X1721662Y-1362557D01*
X1717903Y-1358900D01*
X1715973Y-1357426D01*
X1711960Y-1355344D01*
X1708099Y-1354023D01*
G37*
G36*
X2829306Y-2492502D02*
G01*
X2827883Y-2492603D01*
X2826562Y-2493010D01*
X2825445Y-2493619D01*
X2823565Y-2495702D01*
X2822600Y-2497937D01*
X2822448Y-2499664D01*
X2823006Y-2502916D01*
X2842768Y-2557018D01*
X2843784Y-2559405D01*
X2846120Y-2563317D01*
X2847644Y-2564841D01*
X2849676Y-2565958D01*
X2852216Y-2566568D01*
X2855061Y-2566568D01*
X2857449Y-2565958D01*
X2859481Y-2564841D01*
X2861157Y-2563317D01*
X2863596Y-2559405D01*
X2884170Y-2503932D01*
X2884932Y-2501392D01*
X2885186Y-2499614D01*
X2885135Y-2498344D01*
X2884627Y-2496820D01*
X2883712Y-2495346D01*
X2882442Y-2494076D01*
X2880868Y-2493060D01*
X2879191Y-2492552D01*
X2877108Y-2492603D01*
X2875076Y-2493213D01*
X2873552Y-2494432D01*
X2872536Y-2495804D01*
X2870809Y-2500122D01*
X2853944Y-2550160D01*
X2836926Y-2499766D01*
X2835402Y-2496108D01*
X2834640Y-2494788D01*
X2833725Y-2493772D01*
X2832557Y-2493060D01*
X2831084Y-2492654D01*
G37*
G36*
X2892298Y-2533396D02*
G01*
X2890520Y-2533497D01*
X2888996Y-2533853D01*
X2887726Y-2534412D01*
X2885948Y-2536037D01*
X2885389Y-2537002D01*
X2885033Y-2538171D01*
X2884932Y-2539492D01*
X2885440Y-2541778D01*
X2886964Y-2543556D01*
X2887980Y-2544318D01*
X2889199Y-2544876D01*
X2890621Y-2545232D01*
X2909316Y-2545232D01*
X2910840Y-2544876D01*
X2912110Y-2544318D01*
X2913888Y-2542743D01*
X2914802Y-2540711D01*
X2914802Y-2538171D01*
X2914446Y-2537002D01*
X2913126Y-2535174D01*
X2912110Y-2534412D01*
X2910840Y-2533853D01*
X2909316Y-2533497D01*
G37*
G36*
X2829306Y-2746502D02*
G01*
X2827883Y-2746603D01*
X2826562Y-2747010D01*
X2825445Y-2747619D01*
X2823565Y-2749702D01*
X2822600Y-2751937D01*
X2822448Y-2753664D01*
X2823006Y-2756916D01*
X2842768Y-2811018D01*
X2843784Y-2813405D01*
X2846120Y-2817317D01*
X2847644Y-2818841D01*
X2849676Y-2819958D01*
X2852216Y-2820568D01*
X2855061Y-2820568D01*
X2857449Y-2819958D01*
X2859481Y-2818841D01*
X2861157Y-2817317D01*
X2863596Y-2813405D01*
X2884170Y-2757932D01*
X2884932Y-2755392D01*
X2885186Y-2753614D01*
X2885135Y-2752344D01*
X2884627Y-2750820D01*
X2883712Y-2749346D01*
X2882442Y-2748076D01*
X2880868Y-2747060D01*
X2879191Y-2746552D01*
X2877108Y-2746603D01*
X2875076Y-2747213D01*
X2873552Y-2748432D01*
X2872536Y-2749804D01*
X2870809Y-2754122D01*
X2853944Y-2804160D01*
X2836926Y-2753766D01*
X2835402Y-2750108D01*
X2834640Y-2748788D01*
X2833725Y-2747772D01*
X2832557Y-2747060D01*
X2831084Y-2746654D01*
G37*
G36*
X2911094Y-2758948D02*
G01*
X2911094Y-2777744D01*
X2892298Y-2777744D01*
X2892298Y-2790444D01*
X2911094Y-2790444D01*
X2911094Y-2808986D01*
X2923540Y-2808986D01*
X2923540Y-2790444D01*
X2942336Y-2790444D01*
X2942336Y-2777744D01*
X2923540Y-2777744D01*
X2923540Y-2758948D01*
G37*
D10*
X2832089Y-5626861D02*
G01*
X2832089Y-5722365D01*
X2832089Y-5626861D02*
G01*
X2872983Y-5626861D01*
X2886699Y-5631434D01*
X2891271Y-5636005D01*
X2895843Y-5644895D01*
X2895843Y-5654039D01*
X2891271Y-5663184D01*
X2886699Y-5667755D01*
X2872983Y-5672327D01*
X2832089Y-5672327D01*
X2863839Y-5672327D02*
G01*
X2895843Y-5722365D01*
X2962137Y-5626861D02*
G01*
X2925815Y-5722365D01*
X2962137Y-5626861D02*
G01*
X2998459Y-5722365D01*
X2939277Y-5690361D02*
G01*
X2984743Y-5690361D01*
X3028431Y-5626861D02*
G01*
X3051291Y-5722365D01*
X3073897Y-5626861D02*
G01*
X3051291Y-5722365D01*
X3073897Y-5626861D02*
G01*
X3096757Y-5722365D01*
X3119363Y-5626861D02*
G01*
X3096757Y-5722365D01*
X3268461Y-5649467D02*
G01*
X3264143Y-5640323D01*
X3254999Y-5631434D01*
X3245855Y-5626861D01*
X3227567Y-5626861D01*
X3218677Y-5631434D01*
X3209533Y-5640323D01*
X3204961Y-5649467D01*
X3200389Y-5663184D01*
X3200389Y-5685789D01*
X3204961Y-5699505D01*
X3209533Y-5708650D01*
X3218677Y-5717793D01*
X3227567Y-5722365D01*
X3245855Y-5722365D01*
X3254999Y-5717793D01*
X3264143Y-5708650D01*
X3268461Y-5699505D01*
X3268461Y-5685789D01*
X3245855Y-5685789D02*
G01*
X3268461Y-5685789D01*
X3298687Y-5626861D02*
G01*
X3298687Y-5722365D01*
X3298687Y-5626861D02*
G01*
X3362187Y-5722365D01*
X3362187Y-5626861D02*
G01*
X3362187Y-5722365D01*
X3392159Y-5626861D02*
G01*
X3392159Y-5722365D01*
X3392159Y-5626861D02*
G01*
X3424163Y-5626861D01*
X3437625Y-5631434D01*
X3446769Y-5640323D01*
X3451341Y-5649467D01*
X3455913Y-5663184D01*
X3455913Y-5685789D01*
X3451341Y-5699505D01*
X3446769Y-5708650D01*
X3437625Y-5717793D01*
X3424163Y-5722365D01*
X3392159Y-5722365D01*
X634987Y-953007D02*
G01*
X662165Y-1024635D01*
X689597Y-953007D02*
G01*
X662165Y-1024635D01*
X763257Y-970025D02*
G01*
X759701Y-963167D01*
X752843Y-956309D01*
X746239Y-953007D01*
X732523Y-953007D01*
X725665Y-956309D01*
X718807Y-963167D01*
X715505Y-970025D01*
X711949Y-980185D01*
X711949Y-997457D01*
X715505Y-1007617D01*
X718807Y-1014475D01*
X725665Y-1021079D01*
X732523Y-1024635D01*
X746239Y-1024635D01*
X752843Y-1021079D01*
X759701Y-1014475D01*
X763257Y-1007617D01*
X836917Y-970025D02*
G01*
X833361Y-963167D01*
X826503Y-956309D01*
X819899Y-953007D01*
X806183Y-953007D01*
X799325Y-956309D01*
X792467Y-963167D01*
X789165Y-970025D01*
X785609Y-980185D01*
X785609Y-997457D01*
X789165Y-1007617D01*
X792467Y-1014475D01*
X799325Y-1021079D01*
X806183Y-1024635D01*
X819899Y-1024635D01*
X826503Y-1021079D01*
X833361Y-1014475D01*
X836917Y-1007617D01*
X990841Y-970025D02*
G01*
X987539Y-963167D01*
X980681Y-956309D01*
X973823Y-953007D01*
X960361Y-953007D01*
X953503Y-956309D01*
X946645Y-963167D01*
X943089Y-970025D01*
X939787Y-980185D01*
X939787Y-997457D01*
X943089Y-1007617D01*
X946645Y-1014475D01*
X953503Y-1021079D01*
X960361Y-1024635D01*
X973823Y-1024635D01*
X980681Y-1021079D01*
X987539Y-1014475D01*
X990841Y-1007617D01*
X990841Y-997457D01*
X973823Y-997457D02*
G01*
X990841Y-997457D01*
X1013447Y-953007D02*
G01*
X1013447Y-1024635D01*
X1013447Y-953007D02*
G01*
X1061199Y-1024635D01*
X1061199Y-953007D02*
G01*
X1061199Y-1024635D01*
X1083551Y-953007D02*
G01*
X1083551Y-1024635D01*
X1083551Y-953007D02*
G01*
X1107427Y-953007D01*
X1117841Y-956309D01*
X1124699Y-963167D01*
X1128001Y-970025D01*
X1131303Y-980185D01*
X1131303Y-997457D01*
X1128001Y-1007617D01*
X1124699Y-1014475D01*
X1117841Y-1021079D01*
X1107427Y-1024635D01*
X1083551Y-1024635D01*
X745223Y-4494784D02*
G01*
X742937Y-4490211D01*
X738365Y-4485639D01*
X734047Y-4483353D01*
X724903Y-4483353D01*
X720331Y-4485639D01*
X715759Y-4490211D01*
X713473Y-4494784D01*
X711187Y-4501642D01*
X711187Y-4513071D01*
X713473Y-4519929D01*
X715759Y-4524247D01*
X720331Y-4528819D01*
X724903Y-4531105D01*
X734047Y-4531105D01*
X738365Y-4528819D01*
X742937Y-4524247D01*
X745223Y-4519929D01*
X745223Y-4513071D01*
X734047Y-4513071D02*
G01*
X745223Y-4513071D01*
X760209Y-4483353D02*
G01*
X760209Y-4531105D01*
X760209Y-4483353D02*
G01*
X792213Y-4531105D01*
X792213Y-4483353D02*
G01*
X792213Y-4531105D01*
X807199Y-4483353D02*
G01*
X807199Y-4531105D01*
X807199Y-4483353D02*
G01*
X822947Y-4483353D01*
X829805Y-4485639D01*
X834377Y-4490211D01*
X836663Y-4494784D01*
X838949Y-4501642D01*
X838949Y-4513071D01*
X836663Y-4519929D01*
X834377Y-4524247D01*
X829805Y-4528819D01*
X822947Y-4531105D01*
X807199Y-4531105D01*
X716775Y-4750053D02*
G01*
X698487Y-4797805D01*
X716775Y-4750053D02*
G01*
X734809Y-4797805D01*
X705345Y-4782057D02*
G01*
X727951Y-4782057D01*
X777227Y-4756911D02*
G01*
X774941Y-4752339D01*
X768083Y-4750053D01*
X763511Y-4750053D01*
X756653Y-4752339D01*
X752081Y-4759197D01*
X749795Y-4770627D01*
X749795Y-4782057D01*
X752081Y-4790947D01*
X756653Y-4795519D01*
X763511Y-4797805D01*
X765797Y-4797805D01*
X772655Y-4795519D01*
X777227Y-4790947D01*
X779513Y-4784343D01*
X779513Y-4782057D01*
X777227Y-4775200D01*
X772655Y-4770627D01*
X765797Y-4768342D01*
X763511Y-4768342D01*
X756653Y-4770627D01*
X752081Y-4775200D01*
X749795Y-4782057D01*
X704075Y-4991353D02*
G01*
X685787Y-5039105D01*
X704075Y-4991353D02*
G01*
X722109Y-5039105D01*
X692645Y-5023357D02*
G01*
X715251Y-5023357D01*
X769099Y-4991353D02*
G01*
X746239Y-5039105D01*
X737095Y-4991353D02*
G01*
X769099Y-4991353D01*
X647687Y-5178297D02*
G01*
X652259Y-5176011D01*
X659117Y-5169153D01*
X659117Y-5216905D01*
X687819Y-5169153D02*
G01*
X680961Y-5171439D01*
X676389Y-5178297D01*
X674103Y-5189727D01*
X674103Y-5196585D01*
X676389Y-5207761D01*
X680961Y-5214619D01*
X687819Y-5216905D01*
X692137Y-5216905D01*
X698995Y-5214619D01*
X703567Y-5207761D01*
X705853Y-5196585D01*
X705853Y-5189727D01*
X703567Y-5178297D01*
X698995Y-5171439D01*
X692137Y-5169153D01*
X687819Y-5169153D01*
X787387Y-5102097D02*
G01*
X791959Y-5099811D01*
X798817Y-5092953D01*
X798817Y-5140705D01*
X813803Y-5102097D02*
G01*
X818375Y-5099811D01*
X825233Y-5092953D01*
X825233Y-5140705D01*
X1041387Y-5102097D02*
G01*
X1045959Y-5099811D01*
X1052817Y-5092953D01*
X1052817Y-5140705D01*
X1070089Y-5104384D02*
G01*
X1070089Y-5102097D01*
X1072375Y-5097525D01*
X1074661Y-5095239D01*
X1079233Y-5092953D01*
X1088123Y-5092953D01*
X1092695Y-5095239D01*
X1094981Y-5097525D01*
X1097267Y-5102097D01*
X1097267Y-5106669D01*
X1094981Y-5111242D01*
X1090409Y-5118100D01*
X1067803Y-5140705D01*
X1099553Y-5140705D01*
X1282687Y-5114797D02*
G01*
X1287259Y-5112511D01*
X1294117Y-5105653D01*
X1294117Y-5153405D01*
X1313675Y-5105653D02*
G01*
X1338567Y-5105653D01*
X1324851Y-5123942D01*
X1331709Y-5123942D01*
X1336281Y-5126227D01*
X1338567Y-5128513D01*
X1340853Y-5135371D01*
X1340853Y-5139943D01*
X1338567Y-5146547D01*
X1333995Y-5151119D01*
X1327137Y-5153405D01*
X1320533Y-5153405D01*
X1313675Y-5151119D01*
X1311389Y-5148834D01*
X1309103Y-5144261D01*
X1554975Y-5105653D02*
G01*
X1536687Y-5153405D01*
X1554975Y-5105653D02*
G01*
X1573009Y-5153405D01*
X1543545Y-5137657D02*
G01*
X1566151Y-5137657D01*
X1601711Y-5105653D02*
G01*
X1594853Y-5107939D01*
X1590281Y-5114797D01*
X1587995Y-5126227D01*
X1587995Y-5133085D01*
X1590281Y-5144261D01*
X1594853Y-5151119D01*
X1601711Y-5153405D01*
X1606283Y-5153405D01*
X1613141Y-5151119D01*
X1617713Y-5144261D01*
X1619999Y-5133085D01*
X1619999Y-5126227D01*
X1617713Y-5114797D01*
X1613141Y-5107939D01*
X1606283Y-5105653D01*
X1601711Y-5105653D01*
X1808975Y-5105653D02*
G01*
X1790687Y-5153405D01*
X1808975Y-5105653D02*
G01*
X1827009Y-5153405D01*
X1797545Y-5137657D02*
G01*
X1820151Y-5137657D01*
X1841995Y-5114797D02*
G01*
X1846567Y-5112511D01*
X1853425Y-5105653D01*
X1853425Y-5153405D01*
X2062975Y-5105653D02*
G01*
X2044687Y-5153405D01*
X2062975Y-5105653D02*
G01*
X2081009Y-5153405D01*
X2051545Y-5137657D02*
G01*
X2074151Y-5137657D01*
X2098281Y-5117084D02*
G01*
X2098281Y-5114797D01*
X2100567Y-5110225D01*
X2102853Y-5107939D01*
X2107425Y-5105653D01*
X2116569Y-5105653D01*
X2121141Y-5107939D01*
X2123427Y-5110225D01*
X2125713Y-5114797D01*
X2125713Y-5119369D01*
X2123427Y-5123942D01*
X2118855Y-5130800D01*
X2095995Y-5153405D01*
X2127999Y-5153405D01*
X2316975Y-5092953D02*
G01*
X2298687Y-5140705D01*
X2316975Y-5092953D02*
G01*
X2335009Y-5140705D01*
X2305545Y-5124957D02*
G01*
X2328151Y-5124957D01*
X2354567Y-5092953D02*
G01*
X2379713Y-5092953D01*
X2365997Y-5111242D01*
X2372855Y-5111242D01*
X2377427Y-5113527D01*
X2379713Y-5115813D01*
X2381999Y-5122671D01*
X2381999Y-5127243D01*
X2379713Y-5133847D01*
X2375141Y-5138419D01*
X2368283Y-5140705D01*
X2361425Y-5140705D01*
X2354567Y-5138419D01*
X2352281Y-5136134D01*
X2349995Y-5131561D01*
X2552687Y-5105653D02*
G01*
X2570975Y-5153405D01*
X2589009Y-5105653D02*
G01*
X2570975Y-5153405D01*
X2638031Y-5117084D02*
G01*
X2635999Y-5112511D01*
X2631427Y-5107939D01*
X2626855Y-5105653D01*
X2617711Y-5105653D01*
X2613139Y-5107939D01*
X2608567Y-5112511D01*
X2606281Y-5117084D01*
X2603995Y-5123942D01*
X2603995Y-5135371D01*
X2606281Y-5142229D01*
X2608567Y-5146547D01*
X2613139Y-5151119D01*
X2617711Y-5153405D01*
X2626855Y-5153405D01*
X2631427Y-5151119D01*
X2635999Y-5146547D01*
X2638031Y-5142229D01*
X2687307Y-5117084D02*
G01*
X2685021Y-5112511D01*
X2680449Y-5107939D01*
X2675877Y-5105653D01*
X2666733Y-5105653D01*
X2662161Y-5107939D01*
X2657589Y-5112511D01*
X2655303Y-5117084D01*
X2653271Y-5123942D01*
X2653271Y-5135371D01*
X2655303Y-5142229D01*
X2657589Y-5146547D01*
X2662161Y-5151119D01*
X2666733Y-5153405D01*
X2675877Y-5153405D01*
X2680449Y-5151119D01*
X2685021Y-5146547D01*
X2687307Y-5142229D01*
X2793987Y-5105653D02*
G01*
X2793987Y-5153405D01*
X2793987Y-5105653D02*
G01*
X2814561Y-5105653D01*
X2821165Y-5107939D01*
X2823451Y-5110225D01*
X2825737Y-5114797D01*
X2825737Y-5119369D01*
X2823451Y-5123942D01*
X2821165Y-5126227D01*
X2814561Y-5128513D01*
X2793987Y-5128513D01*
X2809989Y-5128513D02*
G01*
X2825737Y-5153405D01*
X2872727Y-5112511D02*
G01*
X2868155Y-5107939D01*
X2861297Y-5105653D01*
X2852153Y-5105653D01*
X2845295Y-5107939D01*
X2840723Y-5112511D01*
X2840723Y-5117084D01*
X2843009Y-5121655D01*
X2845295Y-5123942D01*
X2849867Y-5126227D01*
X2863583Y-5130800D01*
X2868155Y-5133085D01*
X2870441Y-5135371D01*
X2872727Y-5139943D01*
X2872727Y-5146547D01*
X2868155Y-5151119D01*
X2861297Y-5153405D01*
X2852153Y-5153405D01*
X2845295Y-5151119D01*
X2840723Y-5146547D01*
X2903461Y-5105653D02*
G01*
X2903461Y-5153405D01*
X2887713Y-5105653D02*
G01*
X2919463Y-5105653D01*
X3094723Y-5104384D02*
G01*
X3092437Y-5099811D01*
X3087865Y-5095239D01*
X3083547Y-5092953D01*
X3074403Y-5092953D01*
X3069831Y-5095239D01*
X3065259Y-5099811D01*
X3062973Y-5104384D01*
X3060687Y-5111242D01*
X3060687Y-5122671D01*
X3062973Y-5129529D01*
X3065259Y-5133847D01*
X3069831Y-5138419D01*
X3074403Y-5140705D01*
X3083547Y-5140705D01*
X3087865Y-5138419D01*
X3092437Y-5133847D01*
X3094723Y-5129529D01*
X3094723Y-5122671D01*
X3083547Y-5122671D02*
G01*
X3094723Y-5122671D01*
X3109709Y-5092953D02*
G01*
X3109709Y-5140705D01*
X3109709Y-5092953D02*
G01*
X3141713Y-5140705D01*
X3141713Y-5092953D02*
G01*
X3141713Y-5140705D01*
X3156699Y-5092953D02*
G01*
X3156699Y-5140705D01*
X3156699Y-5092953D02*
G01*
X3172447Y-5092953D01*
X3179305Y-5095239D01*
X3183877Y-5099811D01*
X3186163Y-5104384D01*
X3188449Y-5111242D01*
X3188449Y-5122671D01*
X3186163Y-5129529D01*
X3183877Y-5133847D01*
X3179305Y-5138419D01*
X3172447Y-5140705D01*
X3156699Y-5140705D01*
X3314687Y-5092953D02*
G01*
X3314687Y-5140705D01*
X3314687Y-5092953D02*
G01*
X3335261Y-5092953D01*
X3341865Y-5095239D01*
X3344151Y-5097525D01*
X3346437Y-5102097D01*
X3346437Y-5106669D01*
X3344151Y-5111242D01*
X3341865Y-5113527D01*
X3335261Y-5115813D01*
X3314687Y-5115813D01*
X3330689Y-5115813D02*
G01*
X3346437Y-5140705D01*
X3379711Y-5092953D02*
G01*
X3361423Y-5140705D01*
X3379711Y-5092953D02*
G01*
X3397999Y-5140705D01*
X3368281Y-5124957D02*
G01*
X3391141Y-5124957D01*
X3412985Y-5092953D02*
G01*
X3424161Y-5140705D01*
X3435591Y-5092953D02*
G01*
X3424161Y-5140705D01*
X3435591Y-5092953D02*
G01*
X3447021Y-5140705D01*
X3458451Y-5092953D02*
G01*
X3447021Y-5140705D01*
X3605784Y-5350776D02*
G01*
X3601211Y-5353062D01*
X3596639Y-5357634D01*
X3594354Y-5361952D01*
X3594354Y-5371096D01*
X3596639Y-5375668D01*
X3601211Y-5380240D01*
X3605784Y-5382526D01*
X3612641Y-5384812D01*
X3624072Y-5384812D01*
X3630929Y-5382526D01*
X3635247Y-5380240D01*
X3639820Y-5375668D01*
X3642105Y-5371096D01*
X3642105Y-5361952D01*
X3639820Y-5357634D01*
X3635247Y-5353062D01*
X3630929Y-5350776D01*
X3624072Y-5350776D01*
X3624072Y-5361952D02*
G01*
X3624072Y-5350776D01*
X3594354Y-5335790D02*
G01*
X3642105Y-5335790D01*
X3594354Y-5335790D02*
G01*
X3642105Y-5303786D01*
X3594354Y-5303786D02*
G01*
X3642105Y-5303786D01*
X3594354Y-5288800D02*
G01*
X3642105Y-5288800D01*
X3594354Y-5288800D02*
G01*
X3594354Y-5273052D01*
X3596639Y-5266194D01*
X3601211Y-5261622D01*
X3605784Y-5259336D01*
X3612641Y-5257050D01*
X3624072Y-5257050D01*
X3630929Y-5259336D01*
X3635247Y-5261622D01*
X3639820Y-5266194D01*
X3642105Y-5273052D01*
X3642105Y-5288800D01*
X3440684Y-4931676D02*
G01*
X3436111Y-4933962D01*
X3431539Y-4938534D01*
X3429254Y-4942852D01*
X3429254Y-4951996D01*
X3431539Y-4956568D01*
X3436111Y-4961140D01*
X3440684Y-4963426D01*
X3447541Y-4965712D01*
X3458972Y-4965712D01*
X3465829Y-4963426D01*
X3470147Y-4961140D01*
X3474720Y-4956568D01*
X3477005Y-4951996D01*
X3477005Y-4942852D01*
X3474720Y-4938534D01*
X3470147Y-4933962D01*
X3465829Y-4931676D01*
X3458972Y-4931676D01*
X3458972Y-4942852D02*
G01*
X3458972Y-4931676D01*
X3429254Y-4916690D02*
G01*
X3477005Y-4916690D01*
X3429254Y-4916690D02*
G01*
X3477005Y-4884686D01*
X3429254Y-4884686D02*
G01*
X3477005Y-4884686D01*
X3429254Y-4869700D02*
G01*
X3477005Y-4869700D01*
X3429254Y-4869700D02*
G01*
X3429254Y-4853952D01*
X3431539Y-4847094D01*
X3436111Y-4842522D01*
X3440684Y-4840236D01*
X3447541Y-4837950D01*
X3458972Y-4837950D01*
X3465829Y-4840236D01*
X3470147Y-4842522D01*
X3474720Y-4847094D01*
X3477005Y-4853952D01*
X3477005Y-4869700D01*
X3429254Y-4711712D02*
G01*
X3477005Y-4693424D01*
X3429254Y-4675390D02*
G01*
X3477005Y-4693424D01*
X3440684Y-4626368D02*
G01*
X3436111Y-4628400D01*
X3431539Y-4632972D01*
X3429254Y-4637544D01*
X3429254Y-4646688D01*
X3431539Y-4651260D01*
X3436111Y-4655832D01*
X3440684Y-4658118D01*
X3447541Y-4660404D01*
X3458972Y-4660404D01*
X3465829Y-4658118D01*
X3470147Y-4655832D01*
X3474720Y-4651260D01*
X3477005Y-4646688D01*
X3477005Y-4637544D01*
X3474720Y-4632972D01*
X3470147Y-4628400D01*
X3465829Y-4626368D01*
X3440684Y-4577092D02*
G01*
X3436111Y-4579378D01*
X3431539Y-4583950D01*
X3429254Y-4588522D01*
X3429254Y-4597666D01*
X3431539Y-4602238D01*
X3436111Y-4606810D01*
X3440684Y-4609096D01*
X3447541Y-4611128D01*
X3458972Y-4611128D01*
X3465829Y-4609096D01*
X3470147Y-4606810D01*
X3474720Y-4602238D01*
X3477005Y-4597666D01*
X3477005Y-4588522D01*
X3474720Y-4583950D01*
X3470147Y-4579378D01*
X3465829Y-4577092D01*
X3429254Y-4457712D02*
G01*
X3477005Y-4457712D01*
X3429254Y-4457712D02*
G01*
X3429254Y-4437138D01*
X3431539Y-4430534D01*
X3433825Y-4428248D01*
X3438397Y-4425962D01*
X3442970Y-4425962D01*
X3447541Y-4428248D01*
X3449827Y-4430534D01*
X3452113Y-4437138D01*
X3452113Y-4457712D01*
X3452113Y-4441710D02*
G01*
X3477005Y-4425962D01*
X3429254Y-4410976D02*
G01*
X3477005Y-4378972D01*
X3429254Y-4378972D02*
G01*
X3477005Y-4410976D01*
X3429254Y-4363986D02*
G01*
X3477005Y-4363986D01*
X3429254Y-4187710D02*
G01*
X3477005Y-4187710D01*
X3429254Y-4203712D02*
G01*
X3429254Y-4171962D01*
X3429254Y-4156976D02*
G01*
X3477005Y-4124972D01*
X3429254Y-4124972D02*
G01*
X3477005Y-4156976D01*
X3429254Y-4109986D02*
G01*
X3477005Y-4109986D01*
X3429254Y-4109986D02*
G01*
X3429254Y-4094238D01*
X3431539Y-4087380D01*
X3436111Y-4082808D01*
X3440684Y-4080522D01*
X3447541Y-4078236D01*
X3458972Y-4078236D01*
X3465829Y-4080522D01*
X3470147Y-4082808D01*
X3474720Y-4087380D01*
X3477005Y-4094238D01*
X3477005Y-4109986D01*
X3556254Y-3771912D02*
G01*
X3604005Y-3771912D01*
X3556254Y-3771912D02*
G01*
X3556254Y-3755910D01*
X3558539Y-3749052D01*
X3563111Y-3744734D01*
X3567684Y-3742448D01*
X3574541Y-3740162D01*
X3585972Y-3740162D01*
X3592829Y-3742448D01*
X3597147Y-3744734D01*
X3601720Y-3749052D01*
X3604005Y-3755910D01*
X3604005Y-3771912D01*
X3556254Y-3709174D02*
G01*
X3604005Y-3709174D01*
X3556254Y-3725176D02*
G01*
X3556254Y-3693172D01*
X3556254Y-3678186D02*
G01*
X3604005Y-3678186D01*
X3556254Y-3678186D02*
G01*
X3556254Y-3657866D01*
X3558539Y-3651008D01*
X3560825Y-3648722D01*
X3565397Y-3646436D01*
X3569970Y-3646436D01*
X3574541Y-3648722D01*
X3576827Y-3651008D01*
X3579113Y-3657866D01*
X3579113Y-3678186D01*
X3579113Y-3662438D02*
G01*
X3604005Y-3646436D01*
X3400310Y-3949445D02*
G01*
X3400310Y-3901693D01*
X3416312Y-3949445D02*
G01*
X3384562Y-3949445D01*
X3369576Y-3949445D02*
G01*
X3337572Y-3901693D01*
X3337572Y-3949445D02*
G01*
X3369576Y-3901693D01*
X3309124Y-3949445D02*
G01*
X3313696Y-3947159D01*
X3318014Y-3942587D01*
X3320300Y-3938015D01*
X3322586Y-3931157D01*
X3322586Y-3919727D01*
X3320300Y-3912869D01*
X3318014Y-3908551D01*
X3313696Y-3903979D01*
X3309124Y-3901693D01*
X3299980Y-3901693D01*
X3295408Y-3903979D01*
X3290836Y-3908551D01*
X3288550Y-3912869D01*
X3286264Y-3919727D01*
X3286264Y-3931157D01*
X3288550Y-3938015D01*
X3290836Y-3942587D01*
X3295408Y-3947159D01*
X3299980Y-3949445D01*
X3309124Y-3949445D01*
X3162312Y-3936745D02*
G01*
X3162312Y-3888993D01*
X3162312Y-3936745D02*
G01*
X3141738Y-3936745D01*
X3135134Y-3934459D01*
X3132848Y-3932173D01*
X3130562Y-3927601D01*
X3130562Y-3923029D01*
X3132848Y-3918457D01*
X3135134Y-3916171D01*
X3141738Y-3913885D01*
X3162312Y-3913885D01*
X3146310Y-3913885D02*
G01*
X3130562Y-3888993D01*
X3115576Y-3936745D02*
G01*
X3083572Y-3888993D01*
X3083572Y-3936745D02*
G01*
X3115576Y-3888993D01*
X3068586Y-3936745D02*
G01*
X3068586Y-3888993D01*
X2895612Y-3924045D02*
G01*
X2895612Y-3876293D01*
X2895612Y-3924045D02*
G01*
X2875038Y-3924045D01*
X2868434Y-3921759D01*
X2866148Y-3919473D01*
X2863862Y-3914901D01*
X2863862Y-3910329D01*
X2866148Y-3905757D01*
X2868434Y-3903471D01*
X2875038Y-3901185D01*
X2895612Y-3901185D01*
X2879610Y-3901185D02*
G01*
X2863862Y-3876293D01*
X2816872Y-3917187D02*
G01*
X2821444Y-3921759D01*
X2828302Y-3924045D01*
X2837446Y-3924045D01*
X2844304Y-3921759D01*
X2848876Y-3917187D01*
X2848876Y-3912615D01*
X2846590Y-3908043D01*
X2844304Y-3905757D01*
X2839732Y-3903471D01*
X2826016Y-3898900D01*
X2821444Y-3896613D01*
X2819158Y-3894327D01*
X2816872Y-3889755D01*
X2816872Y-3883151D01*
X2821444Y-3878579D01*
X2828302Y-3876293D01*
X2837446Y-3876293D01*
X2844304Y-3878579D01*
X2848876Y-3883151D01*
X2786138Y-3924045D02*
G01*
X2786138Y-3876293D01*
X2801886Y-3924045D02*
G01*
X2770136Y-3924045D01*
X2607576Y-3912615D02*
G01*
X2609862Y-3917187D01*
X2614434Y-3921759D01*
X2618752Y-3924045D01*
X2627896Y-3924045D01*
X2632468Y-3921759D01*
X2637040Y-3917187D01*
X2639326Y-3912615D01*
X2641612Y-3905757D01*
X2641612Y-3894327D01*
X2639326Y-3887469D01*
X2637040Y-3883151D01*
X2632468Y-3878579D01*
X2627896Y-3876293D01*
X2618752Y-3876293D01*
X2614434Y-3878579D01*
X2609862Y-3883151D01*
X2607576Y-3887469D01*
X2607576Y-3894327D01*
X2618752Y-3894327D02*
G01*
X2607576Y-3894327D01*
X2592590Y-3924045D02*
G01*
X2592590Y-3876293D01*
X2592590Y-3924045D02*
G01*
X2560586Y-3876293D01*
X2560586Y-3924045D02*
G01*
X2560586Y-3876293D01*
X2545600Y-3924045D02*
G01*
X2545600Y-3876293D01*
X2545600Y-3924045D02*
G01*
X2529852Y-3924045D01*
X2522994Y-3921759D01*
X2518422Y-3917187D01*
X2516136Y-3912615D01*
X2513850Y-3905757D01*
X2513850Y-3894327D01*
X2516136Y-3887469D01*
X2518422Y-3883151D01*
X2522994Y-3878579D01*
X2529852Y-3876293D01*
X2545600Y-3876293D01*
X2334526Y-3925315D02*
G01*
X2334526Y-3927601D01*
X2332240Y-3932173D01*
X2329954Y-3934459D01*
X2325382Y-3936745D01*
X2316238Y-3936745D01*
X2311920Y-3934459D01*
X2309634Y-3932173D01*
X2307348Y-3927601D01*
X2307348Y-3923029D01*
X2309634Y-3918457D01*
X2313952Y-3911600D01*
X2336812Y-3888993D01*
X2305062Y-3888993D01*
X2078240Y-3936745D02*
G01*
X2053348Y-3936745D01*
X2066810Y-3918457D01*
X2059952Y-3918457D01*
X2055634Y-3916171D01*
X2053348Y-3913885D01*
X2051062Y-3907027D01*
X2051062Y-3902455D01*
X2053348Y-3895851D01*
X2057920Y-3891279D01*
X2064524Y-3888993D01*
X2071382Y-3888993D01*
X2078240Y-3891279D01*
X2080526Y-3893565D01*
X2082812Y-3898137D01*
X1805952Y-3936745D02*
G01*
X1828812Y-3904742D01*
X1794776Y-3904742D01*
X1805952Y-3936745D02*
G01*
X1805952Y-3888993D01*
X1534934Y-3936745D02*
G01*
X1557540Y-3936745D01*
X1559826Y-3916171D01*
X1557540Y-3918457D01*
X1550682Y-3920743D01*
X1543824Y-3920743D01*
X1537220Y-3918457D01*
X1532648Y-3913885D01*
X1530362Y-3907027D01*
X1530362Y-3902455D01*
X1532648Y-3895851D01*
X1537220Y-3891279D01*
X1543824Y-3888993D01*
X1550682Y-3888993D01*
X1557540Y-3891279D01*
X1559826Y-3893565D01*
X1562112Y-3898137D01*
X1293634Y-3917187D02*
G01*
X1295920Y-3921759D01*
X1302524Y-3924045D01*
X1307096Y-3924045D01*
X1313954Y-3921759D01*
X1318526Y-3914901D01*
X1320812Y-3903471D01*
X1320812Y-3892042D01*
X1318526Y-3883151D01*
X1313954Y-3878579D01*
X1307096Y-3876293D01*
X1304810Y-3876293D01*
X1297952Y-3878579D01*
X1293634Y-3883151D01*
X1291348Y-3889755D01*
X1291348Y-3892042D01*
X1293634Y-3898900D01*
X1297952Y-3903471D01*
X1304810Y-3905757D01*
X1307096Y-3905757D01*
X1313954Y-3903471D01*
X1318526Y-3898900D01*
X1320812Y-3892042D01*
X1035062Y-3924045D02*
G01*
X1057668Y-3876293D01*
X1066812Y-3924045D02*
G01*
X1035062Y-3924045D01*
X801382Y-3924045D02*
G01*
X808240Y-3921759D01*
X810526Y-3917187D01*
X810526Y-3912615D01*
X808240Y-3908043D01*
X803668Y-3905757D01*
X794524Y-3903471D01*
X787920Y-3901185D01*
X783348Y-3896613D01*
X781062Y-3892042D01*
X781062Y-3885437D01*
X783348Y-3880865D01*
X785634Y-3878579D01*
X792238Y-3876293D01*
X801382Y-3876293D01*
X808240Y-3878579D01*
X810526Y-3880865D01*
X812812Y-3885437D01*
X812812Y-3892042D01*
X810526Y-3896613D01*
X805954Y-3901185D01*
X799096Y-3903471D01*
X789952Y-3905757D01*
X785634Y-3908043D01*
X783348Y-3912615D01*
X783348Y-3917187D01*
X785634Y-3921759D01*
X792238Y-3924045D01*
X801382Y-3924045D01*
X516648Y-3908043D02*
G01*
X518934Y-3901185D01*
X523252Y-3896613D01*
X530110Y-3894327D01*
X532396Y-3894327D01*
X539254Y-3896613D01*
X543826Y-3901185D01*
X546112Y-3908043D01*
X546112Y-3910329D01*
X543826Y-3917187D01*
X539254Y-3921759D01*
X532396Y-3924045D01*
X530110Y-3924045D01*
X523252Y-3921759D01*
X518934Y-3917187D01*
X516648Y-3908043D01*
X516648Y-3896613D01*
X518934Y-3885437D01*
X523252Y-3878579D01*
X530110Y-3876293D01*
X534682Y-3876293D01*
X541540Y-3878579D01*
X543826Y-3883151D01*
X224523Y-1129284D02*
G01*
X222237Y-1124711D01*
X217665Y-1120139D01*
X213347Y-1117853D01*
X204203Y-1117853D01*
X199631Y-1120139D01*
X195059Y-1124711D01*
X192773Y-1129284D01*
X190487Y-1136142D01*
X190487Y-1147571D01*
X192773Y-1154429D01*
X195059Y-1158747D01*
X199631Y-1163319D01*
X204203Y-1165605D01*
X213347Y-1165605D01*
X217665Y-1163319D01*
X222237Y-1158747D01*
X224523Y-1154429D01*
X239509Y-1117853D02*
G01*
X239509Y-1165605D01*
X271513Y-1117853D02*
G01*
X271513Y-1165605D01*
X239509Y-1140713D02*
G01*
X271513Y-1140713D01*
X297675Y-1117853D02*
G01*
X291071Y-1120139D01*
X288785Y-1124711D01*
X288785Y-1129284D01*
X291071Y-1133855D01*
X295389Y-1136142D01*
X304533Y-1138427D01*
X311391Y-1140713D01*
X315963Y-1145285D01*
X318249Y-1149857D01*
X318249Y-1156461D01*
X315963Y-1161034D01*
X313677Y-1163319D01*
X306819Y-1165605D01*
X297675Y-1165605D01*
X291071Y-1163319D01*
X288785Y-1161034D01*
X286499Y-1156461D01*
X286499Y-1149857D01*
X288785Y-1145285D01*
X293103Y-1140713D01*
X299961Y-1138427D01*
X309105Y-1136142D01*
X313677Y-1133855D01*
X315963Y-1129284D01*
X315963Y-1124711D01*
X313677Y-1120139D01*
X306819Y-1117853D01*
X297675Y-1117853D01*
X224523Y-1383284D02*
G01*
X222237Y-1378711D01*
X217665Y-1374139D01*
X213347Y-1371853D01*
X204203Y-1371853D01*
X199631Y-1374139D01*
X195059Y-1378711D01*
X192773Y-1383284D01*
X190487Y-1390142D01*
X190487Y-1401571D01*
X192773Y-1408429D01*
X195059Y-1412747D01*
X199631Y-1417319D01*
X204203Y-1419605D01*
X213347Y-1419605D01*
X217665Y-1417319D01*
X222237Y-1412747D01*
X224523Y-1408429D01*
X239509Y-1371853D02*
G01*
X239509Y-1419605D01*
X271513Y-1371853D02*
G01*
X271513Y-1419605D01*
X239509Y-1394713D02*
G01*
X271513Y-1394713D01*
X318249Y-1371853D02*
G01*
X295389Y-1419605D01*
X286499Y-1371853D02*
G01*
X318249Y-1371853D01*
X224523Y-1637284D02*
G01*
X222237Y-1632711D01*
X217665Y-1628139D01*
X213347Y-1625853D01*
X204203Y-1625853D01*
X199631Y-1628139D01*
X195059Y-1632711D01*
X192773Y-1637284D01*
X190487Y-1644142D01*
X190487Y-1655571D01*
X192773Y-1662429D01*
X195059Y-1666747D01*
X199631Y-1671319D01*
X204203Y-1673605D01*
X213347Y-1673605D01*
X217665Y-1671319D01*
X222237Y-1666747D01*
X224523Y-1662429D01*
X239509Y-1625853D02*
G01*
X239509Y-1673605D01*
X271513Y-1625853D02*
G01*
X271513Y-1673605D01*
X239509Y-1648713D02*
G01*
X271513Y-1648713D01*
X313677Y-1632711D02*
G01*
X311391Y-1628139D01*
X304533Y-1625853D01*
X299961Y-1625853D01*
X293103Y-1628139D01*
X288785Y-1634997D01*
X286499Y-1646427D01*
X286499Y-1657857D01*
X288785Y-1666747D01*
X293103Y-1671319D01*
X299961Y-1673605D01*
X302247Y-1673605D01*
X309105Y-1671319D01*
X313677Y-1666747D01*
X315963Y-1660143D01*
X315963Y-1657857D01*
X313677Y-1651000D01*
X309105Y-1646427D01*
X302247Y-1644142D01*
X299961Y-1644142D01*
X293103Y-1646427D01*
X288785Y-1651000D01*
X286499Y-1657857D01*
X224523Y-1891284D02*
G01*
X222237Y-1886711D01*
X217665Y-1882139D01*
X213347Y-1879853D01*
X204203Y-1879853D01*
X199631Y-1882139D01*
X195059Y-1886711D01*
X192773Y-1891284D01*
X190487Y-1898142D01*
X190487Y-1909571D01*
X192773Y-1916429D01*
X195059Y-1920747D01*
X199631Y-1925319D01*
X204203Y-1927605D01*
X213347Y-1927605D01*
X217665Y-1925319D01*
X222237Y-1920747D01*
X224523Y-1916429D01*
X239509Y-1879853D02*
G01*
X239509Y-1927605D01*
X271513Y-1879853D02*
G01*
X271513Y-1927605D01*
X239509Y-1902713D02*
G01*
X271513Y-1902713D01*
X313677Y-1879853D02*
G01*
X291071Y-1879853D01*
X288785Y-1900427D01*
X291071Y-1898142D01*
X297675Y-1895855D01*
X304533Y-1895855D01*
X311391Y-1898142D01*
X315963Y-1902713D01*
X318249Y-1909571D01*
X318249Y-1914143D01*
X315963Y-1920747D01*
X311391Y-1925319D01*
X304533Y-1927605D01*
X297675Y-1927605D01*
X291071Y-1925319D01*
X288785Y-1923034D01*
X286499Y-1918461D01*
X224523Y-2145284D02*
G01*
X222237Y-2140711D01*
X217665Y-2136139D01*
X213347Y-2133853D01*
X204203Y-2133853D01*
X199631Y-2136139D01*
X195059Y-2140711D01*
X192773Y-2145284D01*
X190487Y-2152142D01*
X190487Y-2163571D01*
X192773Y-2170429D01*
X195059Y-2174747D01*
X199631Y-2179319D01*
X204203Y-2181605D01*
X213347Y-2181605D01*
X217665Y-2179319D01*
X222237Y-2174747D01*
X224523Y-2170429D01*
X239509Y-2133853D02*
G01*
X239509Y-2181605D01*
X271513Y-2133853D02*
G01*
X271513Y-2181605D01*
X239509Y-2156713D02*
G01*
X271513Y-2156713D01*
X309105Y-2133853D02*
G01*
X286499Y-2165857D01*
X320535Y-2165857D01*
X309105Y-2133853D02*
G01*
X309105Y-2181605D01*
X224523Y-2399284D02*
G01*
X222237Y-2394711D01*
X217665Y-2390139D01*
X213347Y-2387853D01*
X204203Y-2387853D01*
X199631Y-2390139D01*
X195059Y-2394711D01*
X192773Y-2399284D01*
X190487Y-2406142D01*
X190487Y-2417571D01*
X192773Y-2424429D01*
X195059Y-2428747D01*
X199631Y-2433319D01*
X204203Y-2435605D01*
X213347Y-2435605D01*
X217665Y-2433319D01*
X222237Y-2428747D01*
X224523Y-2424429D01*
X239509Y-2387853D02*
G01*
X239509Y-2435605D01*
X271513Y-2387853D02*
G01*
X271513Y-2435605D01*
X239509Y-2410713D02*
G01*
X271513Y-2410713D01*
X291071Y-2387853D02*
G01*
X315963Y-2387853D01*
X302247Y-2406142D01*
X309105Y-2406142D01*
X313677Y-2408427D01*
X315963Y-2410713D01*
X318249Y-2417571D01*
X318249Y-2422143D01*
X315963Y-2428747D01*
X311391Y-2433319D01*
X304533Y-2435605D01*
X297675Y-2435605D01*
X291071Y-2433319D01*
X288785Y-2431034D01*
X286499Y-2426461D01*
X224523Y-2653284D02*
G01*
X222237Y-2648711D01*
X217665Y-2644139D01*
X213347Y-2641853D01*
X204203Y-2641853D01*
X199631Y-2644139D01*
X195059Y-2648711D01*
X192773Y-2653284D01*
X190487Y-2660142D01*
X190487Y-2671571D01*
X192773Y-2678429D01*
X195059Y-2682747D01*
X199631Y-2687319D01*
X204203Y-2689605D01*
X213347Y-2689605D01*
X217665Y-2687319D01*
X222237Y-2682747D01*
X224523Y-2678429D01*
X239509Y-2641853D02*
G01*
X239509Y-2689605D01*
X271513Y-2641853D02*
G01*
X271513Y-2689605D01*
X239509Y-2664713D02*
G01*
X271513Y-2664713D01*
X288785Y-2653284D02*
G01*
X288785Y-2650997D01*
X291071Y-2646425D01*
X293103Y-2644139D01*
X297675Y-2641853D01*
X306819Y-2641853D01*
X311391Y-2644139D01*
X313677Y-2646425D01*
X315963Y-2650997D01*
X315963Y-2655569D01*
X313677Y-2660142D01*
X309105Y-2667000D01*
X286499Y-2689605D01*
X318249Y-2689605D01*
X224523Y-2907284D02*
G01*
X222237Y-2902711D01*
X217665Y-2898139D01*
X213347Y-2895853D01*
X204203Y-2895853D01*
X199631Y-2898139D01*
X195059Y-2902711D01*
X192773Y-2907284D01*
X190487Y-2914142D01*
X190487Y-2925571D01*
X192773Y-2932429D01*
X195059Y-2936747D01*
X199631Y-2941319D01*
X204203Y-2943605D01*
X213347Y-2943605D01*
X217665Y-2941319D01*
X222237Y-2936747D01*
X224523Y-2932429D01*
X239509Y-2895853D02*
G01*
X239509Y-2943605D01*
X271513Y-2895853D02*
G01*
X271513Y-2943605D01*
X239509Y-2918713D02*
G01*
X271513Y-2918713D01*
X286499Y-2904997D02*
G01*
X291071Y-2902711D01*
X297675Y-2895853D01*
X297675Y-2943605D01*
D11*
X1651000Y-2033269D02*
G01*
X1651000Y-2224277D01*
X1651000Y-2033269D02*
G01*
X1778254Y-2224277D01*
X1778254Y-2033269D02*
G01*
X1778254Y-2224277D01*
X1838197Y-2033269D02*
G01*
X1838197Y-2224277D01*
X1838197Y-2033269D02*
G01*
X1919986Y-2033269D01*
X1947418Y-2042413D01*
X1956561Y-2051557D01*
X1965452Y-2069845D01*
X1965452Y-2087879D01*
X1956561Y-2106167D01*
X1947418Y-2115311D01*
X1919986Y-2124201D01*
X1838197Y-2124201D01*
X1901952Y-2124201D02*
G01*
X1965452Y-2224277D01*
X2025650Y-2033269D02*
G01*
X2025650Y-2224277D01*
X2025650Y-2033269D02*
G01*
X2143759Y-2033269D01*
X2025650Y-2124201D02*
G01*
X2098293Y-2124201D01*
X2212847Y-2078735D02*
G01*
X2212847Y-2069845D01*
X2221991Y-2051557D01*
X2230881Y-2042413D01*
X2249170Y-2033269D01*
X2285491Y-2033269D01*
X2303779Y-2042413D01*
X2312923Y-2051557D01*
X2321813Y-2069845D01*
X2321813Y-2087879D01*
X2312923Y-2106167D01*
X2294636Y-2133345D01*
X2203704Y-2224277D01*
X2330957Y-2224277D01*
X2481834Y-2033269D02*
G01*
X2390902Y-2160777D01*
X2527300Y-2160777D01*
X2481834Y-2033269D02*
G01*
X2481834Y-2224277D01*
X2587243Y-2033269D02*
G01*
X2587243Y-2224277D01*
X2587243Y-2224277D02*
G01*
X2696463Y-2224277D01*
X2811018Y-2033269D02*
G01*
X2783839Y-2042413D01*
X2765552Y-2069845D01*
X2756407Y-2115311D01*
X2756407Y-2142489D01*
X2765552Y-2187955D01*
X2783839Y-2215134D01*
X2811018Y-2224277D01*
X2829305Y-2224277D01*
X2856484Y-2215134D01*
X2874518Y-2187955D01*
X2883661Y-2142489D01*
X2883661Y-2115311D01*
X2874518Y-2069845D01*
X2856484Y-2042413D01*
X2829305Y-2033269D01*
X2811018Y-2033269D01*
X2943605Y-2069845D02*
G01*
X2961893Y-2060701D01*
X2989072Y-2033269D01*
X2989072Y-2224277D01*
D12*
X2298700Y-265772D02*
G01*
X2298700Y-343496D01*
X2303779Y-359244D01*
X2314193Y-369658D01*
X2329941Y-374738D01*
X2340355Y-374738D01*
X2355850Y-369658D01*
X2366263Y-359244D01*
X2371343Y-343496D01*
X2371343Y-265772D01*
X2405634Y-286346D02*
G01*
X2416047Y-281266D01*
X2431795Y-265772D01*
X2431795Y-374738D01*
X235026Y-4514253D02*
G01*
X312750Y-4514253D01*
X328498Y-4509173D01*
X338912Y-4498759D01*
X343992Y-4483011D01*
X343992Y-4472597D01*
X338912Y-4457103D01*
X328498Y-4446689D01*
X312750Y-4441609D01*
X235026Y-4441609D01*
X260934Y-4401985D02*
G01*
X255600Y-4401985D01*
X245186Y-4396905D01*
X240106Y-4391571D01*
X235026Y-4381157D01*
X235026Y-4360583D01*
X240106Y-4350169D01*
X245186Y-4344835D01*
X255600Y-4339755D01*
X266014Y-4339755D01*
X276428Y-4344835D01*
X292176Y-4355249D01*
X343992Y-4407319D01*
X343992Y-4334421D01*
X3339172Y-1968500D02*
G01*
X3416896Y-1968500D01*
X3432644Y-1963419D01*
X3443058Y-1953005D01*
X3448138Y-1937257D01*
X3448138Y-1926843D01*
X3443058Y-1911350D01*
X3432644Y-1900935D01*
X3416896Y-1895855D01*
X3339172Y-1895855D01*
X3339172Y-1851151D02*
G01*
X3339172Y-1794001D01*
X3380574Y-1824989D01*
X3380574Y-1809495D01*
X3385908Y-1799081D01*
X3390988Y-1794001D01*
X3406482Y-1788667D01*
X3416896Y-1788667D01*
X3432644Y-1794001D01*
X3443058Y-1804415D01*
X3448138Y-1819909D01*
X3448138Y-1835403D01*
X3443058Y-1851151D01*
X3437724Y-1856231D01*
X3427310Y-1861565D01*
G36*
X3730244Y-1693113D02*
G01*
X3715969Y-1693722D01*
X3701745Y-1695145D01*
X3687673Y-1697380D01*
X3673703Y-1700428D01*
X3659936Y-1704238D01*
X3646424Y-1708861D01*
X3633215Y-1714246D01*
X3620312Y-1720342D01*
X3607765Y-1727200D01*
X3595674Y-1734718D01*
X3583990Y-1742948D01*
X3572814Y-1751838D01*
X3562146Y-1761337D01*
X3557015Y-1766316D01*
X3910584Y-1766316D01*
X3900220Y-1756511D01*
X3889248Y-1747316D01*
X3877818Y-1738782D01*
X3865930Y-1730857D01*
X3853637Y-1723694D01*
X3840886Y-1717192D01*
X3827830Y-1711452D01*
X3814419Y-1706473D01*
X3807663Y-1704238D01*
X3793896Y-1700428D01*
X3779926Y-1697380D01*
X3765854Y-1695145D01*
X3751630Y-1693722D01*
X3737356Y-1693113D01*
G37*
G36*
X3643782Y-2063089D02*
G01*
X3643782Y-2143099D01*
X3663797Y-2143099D01*
X3663797Y-2063089D01*
G37*
G36*
X3613810Y-2093112D02*
G01*
X3613810Y-2113076D01*
X3693820Y-2113076D01*
X3693820Y-2093112D01*
G37*
D13*
X1371600Y-419100D02*
G01*
X3271596Y-419100D01*
X3271596Y-3019094D01*
X1371600Y-3019094D01*
X1371600Y-419100D01*
X1794103Y-550113D02*
G01*
X2854096Y-550113D01*
X2854096Y-1050112D01*
X1794103Y-1050112D01*
X1794103Y-550113D01*
X1790700Y-546100D02*
G01*
X2055698Y-546100D01*
X2055698Y-796112D01*
X1790700Y-796112D01*
X1790700Y-546100D01*
X1790700Y-800100D02*
G01*
X2055698Y-800100D01*
X2055698Y-1050112D01*
X1790700Y-1050112D01*
X1790700Y-800100D01*
X2057400Y-546100D02*
G01*
X2322398Y-546100D01*
X2322398Y-796112D01*
X2057400Y-796112D01*
X2057400Y-546100D01*
X2057400Y-800100D02*
G01*
X2322398Y-800100D01*
X2322398Y-1050112D01*
X2057400Y-1050112D01*
X2057400Y-800100D01*
X2324100Y-546100D02*
G01*
X2589098Y-546100D01*
X2589098Y-796112D01*
X2324100Y-796112D01*
X2324100Y-546100D01*
X2590800Y-546100D02*
G01*
X2855798Y-546100D01*
X2855798Y-796112D01*
X2590800Y-796112D01*
X2590800Y-546100D01*
X2324100Y-800100D02*
G01*
X2589098Y-800100D01*
X2589098Y-1050112D01*
X2324100Y-1050112D01*
X2324100Y-800100D01*
X2590800Y-800100D02*
G01*
X2855798Y-800100D01*
X2855798Y-1050112D01*
X2590800Y-1050112D01*
X2590800Y-800100D01*
X375653Y-5428653D02*
G01*
X375653Y-3625253D01*
X401053Y-3625253D01*
X401053Y-5428653D01*
X375653Y-5428653D01*
X401053Y-5428653D02*
G01*
X401053Y-5403253D01*
X3728453Y-5403253D01*
X3728453Y-5428653D01*
X401053Y-5428653D01*
X3728453Y-5428653D02*
G01*
X3728453Y-3625253D01*
X3753853Y-3625253D01*
X3753853Y-5428653D01*
X3728453Y-5428653D01*
X375653Y-3625253D02*
G01*
X375653Y-3599853D01*
X3753853Y-3599853D01*
X3753853Y-3625253D01*
X375653Y-3625253D01*
G75*
G01
X3983812Y-1943100D02*
G03X3983812Y-1943100I-250012J0D01*
X2882902Y-5753100D02*
G01*
X3162302Y-5753100D01*
X3162302Y-6007100D01*
X2882902Y-6007100D01*
X2882902Y-5753100D01*
X3162302Y-5753100D02*
G01*
X3416302Y-5753100D01*
X3416302Y-6007100D01*
X3162302Y-6007100D01*
X3162302Y-5753100D01*
M02*
