G04 Layer: TopLayer*
G04 EasyEDA v6.5.46, 2025-08-30 12:54:10*
G04 04c061e2933c4fd480ff2fcb95437ea8,10*
G04 Gerber Generator version 0.2*
G04 Scale: 100 percent, Rotated: No, Reflected: No *
G04 Dimensions in millimeters *
G04 leading zeros omitted , absolute positions ,4 integer and 5 decimal *
%FSLAX45Y45*%
%MOMM*%

%ADD10C,0.2540*%
%ADD11C,1.5240*%
%ADD12C,1.7780*%
%ADD13C,1.1000*%
%ADD14C,1.5700*%
%ADD15R,1.5700X1.5700*%

%LPD*%
D10*
X482587Y-2959100D02*
G01*
X166611Y-2959100D01*
X114287Y-2907792D01*
X114287Y-526795D01*
X180581Y-495300D01*
X3868661Y-495300D01*
X3924287Y-538225D01*
X3924287Y-3223767D01*
X3870185Y-3289300D01*
X3556495Y-3289300D01*
X3093453Y-3752342D01*
X736587Y-1181100D02*
G01*
X736587Y-700023D01*
X768845Y-673100D01*
X2805671Y-673100D01*
X2844787Y-704595D01*
X2844787Y-3155695D01*
X2872981Y-3200400D01*
X2936989Y-3200400D01*
X2971787Y-3224529D01*
X2971787Y-4499863D01*
X2928353Y-4559300D01*
X2623045Y-4559300D01*
X2585453Y-4594859D01*
X2585453Y-5276342D01*
X2451087Y-1549400D02*
G01*
X2451087Y-1120393D01*
X2405621Y-1092200D01*
X1332471Y-1092200D01*
X1282687Y-1139189D01*
X1282687Y-3132327D01*
X1100315Y-3314700D01*
X271767Y-3314700D01*
X203187Y-3422142D01*
X203187Y-5657342D01*
X271767Y-5740400D01*
X734301Y-5740400D01*
X812787Y-5650992D01*
X812787Y-5281675D01*
X807453Y-5276342D01*
X2585453Y-3752342D02*
G01*
X2585453Y-942593D01*
X2532875Y-901700D01*
X1003287Y-901700D01*
X990587Y-914400D01*
X990587Y-1181100D01*
X2705087Y-1549400D02*
G01*
X2717787Y-3530600D01*
X2705087Y-4152900D01*
X2209787Y-4826000D01*
X2209787Y-5590539D01*
X2144763Y-5664200D01*
X1092187Y-5664200D01*
X1054087Y-5619495D01*
X1054087Y-5283707D01*
X1061453Y-5276342D01*
X1943087Y-1549400D02*
G01*
X1842503Y-1549400D01*
X1816087Y-1516887D01*
X1816087Y-1220723D01*
X1790687Y-1193800D01*
X1768335Y-1181100D01*
X1601711Y-1181100D01*
X1562087Y-1226819D01*
X1562087Y-3329939D01*
X1497317Y-3403600D01*
X362953Y-3403600D01*
X304787Y-3446271D01*
X304787Y-5541009D01*
X333489Y-5600700D01*
X443471Y-5600700D01*
X482587Y-5544819D01*
X482587Y-5347207D01*
X553453Y-5276342D01*
X2197087Y-1549400D02*
G01*
X2197087Y-4650993D01*
X2140953Y-4711700D01*
X1880095Y-4711700D01*
X1315453Y-5276342D01*
X1689087Y-1549400D02*
G01*
X1689087Y-3430523D01*
X1663700Y-3467100D01*
X1614665Y-3505200D01*
X800595Y-3505200D01*
X553453Y-3752342D01*
D11*
G01*
X1689100Y-1549400D03*
G01*
X1943100Y-1549400D03*
G01*
X2197100Y-1549400D03*
G01*
X2451100Y-1549400D03*
G01*
X2705100Y-1549400D03*
G01*
X2959100Y-1549400D03*
G01*
X3086100Y-2527300D03*
G01*
X3086100Y-2781300D03*
D12*
G01*
X553453Y-5276253D03*
G01*
X807453Y-5276253D03*
G01*
X1061453Y-5276253D03*
G01*
X1315453Y-5276253D03*
G01*
X1569453Y-5276253D03*
G01*
X1823453Y-5276253D03*
G01*
X2077453Y-5276253D03*
G01*
X2331453Y-5276253D03*
G01*
X2585453Y-5276253D03*
G01*
X2839453Y-5276253D03*
G01*
X3093453Y-5276253D03*
G01*
X3347453Y-5276253D03*
G01*
X3347453Y-3752253D03*
G01*
X3093453Y-3752253D03*
G01*
X2839453Y-3752253D03*
G01*
X2585453Y-3752253D03*
G01*
X2331453Y-3752253D03*
G01*
X2077453Y-3752253D03*
G01*
X1823453Y-3752253D03*
G01*
X1569453Y-3752253D03*
G01*
X1315453Y-3752253D03*
G01*
X1061453Y-3752253D03*
G01*
X807453Y-3752253D03*
G01*
X553453Y-3752253D03*
G01*
X553453Y-4514253D03*
G01*
X553453Y-4768253D03*
G01*
X553453Y-5022253D03*
G01*
X3601453Y-4133253D03*
G01*
X3601453Y-4387253D03*
G01*
X3601453Y-4641253D03*
G01*
X3601453Y-4895253D03*
G01*
X3601453Y-5149253D03*
G01*
X3601453Y-3879253D03*
D13*
G01*
X3733800Y-2043099D03*
G01*
X3733800Y-1843100D03*
D14*
G01*
X482600Y-1181100D03*
G01*
X482600Y-1435100D03*
G01*
X482600Y-1689100D03*
G01*
X482600Y-1943100D03*
G01*
X482600Y-2197100D03*
G01*
X482600Y-2451100D03*
G01*
X482600Y-2705100D03*
G01*
X736600Y-2705100D03*
G01*
X736600Y-2451100D03*
G01*
X736600Y-2197100D03*
G01*
X736600Y-1943100D03*
G01*
X736600Y-1689100D03*
G01*
X736600Y-1435100D03*
G01*
X736600Y-1181100D03*
D15*
G01*
X990600Y-1181100D03*
G01*
X990600Y-1435100D03*
G01*
X990600Y-1689100D03*
G01*
X990600Y-1943100D03*
G01*
X990600Y-2197100D03*
G01*
X990600Y-2451100D03*
G01*
X990600Y-2705100D03*
D14*
G01*
X3022602Y-5880100D03*
G01*
X3276602Y-5880100D03*
G01*
X482600Y-2959100D03*
G01*
X736600Y-2959100D03*
D15*
G01*
X990600Y-2959100D03*
M02*
